<svg width="224" height="38" viewBox="0 0 224 38" fill="none" xmlns="http://www.w3.org/2000/svg">
<g filter="url(#filter0_d_3_3)">
<mask id="path-1-outside-1_3_3" maskUnits="userSpaceOnUse" x="3" y="-1" width="218" height="32" fill="black">
<rect fill="white" x="3" y="-1" width="218" height="32"/>
<path d="M11.76 5.48C12.2133 5.21333 12.8933 4.96 13.8 4.72C14.7333 4.48 15.6667 4.36 16.6 4.36C17.9333 4.36 19.1067 4.56 20.12 4.96C21.16 5.33333 21.8267 5.93333 22.12 6.76C22.6 8.14667 23.12 9.76 23.68 11.6C24.24 13.44 24.8 15.3467 25.36 17.32C25.92 19.2667 26.4667 21.2 27 23.12C27.5333 25.0133 28 26.6933 28.4 28.16C28.08 28.5333 27.6 28.8267 26.96 29.04C26.32 29.28 25.56 29.4 24.68 29.4C24.04 29.4 23.4933 29.3467 23.04 29.24C22.6133 29.1333 22.2533 28.9733 21.96 28.76C21.6933 28.5467 21.4667 28.2667 21.28 27.92C21.12 27.5733 20.9733 27.1733 20.84 26.72L20.12 23.96H12.88C12.6667 24.76 12.4533 25.5867 12.24 26.44C12.0267 27.2933 11.8133 28.12 11.6 28.92C11.2267 29.0533 10.8267 29.16 10.4 29.24C10 29.3467 9.50667 29.4 8.92 29.4C7.56 29.4 6.54667 29.1733 5.88 28.72C5.24 28.24 4.92 27.5867 4.92 26.76C4.92 26.3867 4.97333 26.0133 5.08 25.64C5.18667 25.2667 5.30667 24.8267 5.44 24.32C5.62667 23.6 5.88 22.7067 6.2 21.64C6.54667 20.5733 6.92 19.4267 7.32 18.2C7.72 16.9467 8.14667 15.6667 8.6 14.36C9.05333 13.0533 9.48 11.8267 9.88 10.68C10.28 9.50667 10.64 8.46667 10.96 7.56C11.3067 6.65333 11.5733 5.96 11.76 5.48ZM16.56 10.64C16.1867 11.76 15.76 13.0133 15.28 14.4C14.8267 15.76 14.4133 17.1467 14.04 18.56H19C18.6267 17.12 18.24 15.72 17.84 14.36C17.4667 12.9733 17.12 11.7333 16.8 10.64H16.56ZM37.9581 28.96C37.6915 29.04 37.2648 29.12 36.6781 29.2C36.1181 29.28 35.5315 29.32 34.9181 29.32C34.3315 29.32 33.7981 29.28 33.3181 29.2C32.8648 29.12 32.4781 28.96 32.1581 28.72C31.8381 28.48 31.5848 28.16 31.3981 27.76C31.2381 27.3333 31.1581 26.7867 31.1581 26.12V14.12C31.1581 13.5067 31.2648 12.9867 31.4781 12.56C31.7181 12.1067 32.0515 11.7067 32.4781 11.36C32.9048 11.0133 33.4248 10.7067 34.0381 10.44C34.6781 10.1467 35.3581 9.89333 36.0781 9.68C36.7981 9.46667 37.5448 9.30667 38.3181 9.2C39.0915 9.06667 39.8648 9 40.6381 9C41.9181 9 42.9315 9.25333 43.6781 9.76C44.4248 10.24 44.7981 11.04 44.7981 12.16C44.7981 12.5333 44.7448 12.9067 44.6381 13.28C44.5315 13.6267 44.3981 13.9467 44.2381 14.24C43.6781 14.24 43.1048 14.2667 42.5181 14.32C41.9315 14.3733 41.3581 14.4533 40.7981 14.56C40.2381 14.6667 39.7048 14.7867 39.1981 14.92C38.7181 15.0267 38.3048 15.16 37.9581 15.32V28.96ZM47.4434 4.16C47.4434 3.14666 47.7768 2.29333 48.4434 1.6C49.1368 0.906665 50.0434 0.559999 51.1634 0.559999C52.2834 0.559999 53.1768 0.906665 53.8434 1.6C54.5368 2.29333 54.8834 3.14666 54.8834 4.16C54.8834 5.17333 54.5368 6.02667 53.8434 6.72C53.1768 7.41333 52.2834 7.76 51.1634 7.76C50.0434 7.76 49.1368 7.41333 48.4434 6.72C47.7768 6.02667 47.4434 5.17333 47.4434 4.16ZM54.5634 28.96C54.2701 29.0133 53.8301 29.08 53.2434 29.16C52.6834 29.2667 52.1101 29.32 51.5234 29.32C50.9368 29.32 50.4034 29.28 49.9234 29.2C49.4701 29.12 49.0834 28.96 48.7634 28.72C48.4434 28.48 48.1901 28.16 48.0034 27.76C47.8434 27.3333 47.7634 26.7867 47.7634 26.12V9.84C48.0568 9.78667 48.4834 9.72 49.0434 9.64C49.6301 9.53333 50.2168 9.48 50.8034 9.48C51.3901 9.48 51.9101 9.52 52.3634 9.6C52.8434 9.68 53.2434 9.84 53.5634 10.08C53.8834 10.32 54.1234 10.6533 54.2834 11.08C54.4701 11.48 54.5634 12.0133 54.5634 12.68V28.96ZM84.1803 23.04C83.8336 23.3333 83.3803 23.5733 82.8203 23.76C82.287 23.92 81.6603 24 80.9403 24C79.9803 24 79.1803 23.88 78.5403 23.64C77.927 23.4 77.527 22.9867 77.3403 22.4C76.5936 20.0533 75.9803 18.16 75.5003 16.72C75.0203 15.2533 74.647 13.9733 74.3803 12.88H74.1803C74.1003 14.4533 74.0336 15.8933 73.9803 17.2C73.9536 18.48 73.927 19.7333 73.9003 20.96C73.9003 22.1867 73.8736 23.4267 73.8203 24.68C73.7936 25.9333 73.7403 27.32 73.6603 28.84C73.3136 28.9733 72.8603 29.08 72.3003 29.16C71.7403 29.2667 71.1803 29.32 70.6203 29.32C69.447 29.32 68.527 29.1333 67.8603 28.76C67.2203 28.3867 66.9003 27.7067 66.9003 26.72L68.0603 6.32C68.2736 5.97333 68.7403 5.6 69.4603 5.2C70.1803 4.8 71.1936 4.6 72.5003 4.6C73.9136 4.6 75.0203 4.82667 75.8203 5.28C76.6203 5.70667 77.207 6.41333 77.5803 7.4C77.8203 8.04 78.0736 8.77333 78.3403 9.6C78.6336 10.4267 78.9136 11.28 79.1803 12.16C79.4736 13.04 79.7536 13.92 80.0203 14.8C80.287 15.6533 80.527 16.4267 80.7403 17.12H80.9403C81.5803 14.88 82.2203 12.72 82.8603 10.64C83.5003 8.53333 84.087 6.77333 84.6203 5.36C85.0203 5.14667 85.527 4.97333 86.1403 4.84C86.7803 4.68 87.487 4.6 88.2603 4.6C89.567 4.6 90.6336 4.8 91.4603 5.2C92.287 5.57333 92.767 6.12 92.9003 6.84C93.007 7.37333 93.1136 8.2 93.2203 9.32C93.3536 10.4133 93.487 11.6533 93.6203 13.04C93.7536 14.4267 93.887 15.8933 94.0203 17.44C94.1536 18.9867 94.2736 20.48 94.3803 21.92C94.5136 23.3333 94.6203 24.64 94.7003 25.84C94.7803 27.0133 94.8336 27.92 94.8603 28.56C94.407 28.8267 93.927 29.0133 93.4203 29.12C92.9403 29.2533 92.3136 29.32 91.5403 29.32C90.527 29.32 89.6736 29.1467 88.9803 28.8C88.287 28.4533 87.9136 27.7733 87.8603 26.76C87.7003 23.8533 87.5936 21.24 87.5403 18.92C87.5136 16.6 87.4603 14.6533 87.3803 13.08H87.1803C86.9136 14.12 86.527 15.4267 86.0203 17C85.5136 18.5733 84.9003 20.5867 84.1803 23.04ZM118.739 19.28C118.739 20.9333 118.486 22.4133 117.979 23.72C117.472 25 116.752 26.08 115.819 26.96C114.912 27.84 113.819 28.5067 112.539 28.96C111.259 29.4133 109.832 29.64 108.259 29.64C106.686 29.64 105.259 29.4 103.979 28.92C102.699 28.44 101.592 27.76 100.659 26.88C99.7524 25.9733 99.0457 24.88 98.5391 23.6C98.0324 22.32 97.7791 20.88 97.7791 19.28C97.7791 17.7067 98.0324 16.28 98.5391 15C99.0457 13.72 99.7524 12.64 100.659 11.76C101.592 10.8533 102.699 10.16 103.979 9.68C105.259 9.2 106.686 8.96 108.259 8.96C109.832 8.96 111.259 9.21333 112.539 9.72C113.819 10.2 114.912 10.8933 115.819 11.8C116.752 12.68 117.472 13.76 117.979 15.04C118.486 16.32 118.739 17.7333 118.739 19.28ZM104.739 19.28C104.739 20.9067 105.046 22.16 105.659 23.04C106.299 23.8933 107.179 24.32 108.299 24.32C109.419 24.32 110.272 23.88 110.859 23C111.472 22.12 111.779 20.88 111.779 19.28C111.779 17.68 111.472 16.4533 110.859 15.6C110.246 14.72 109.379 14.28 108.259 14.28C107.139 14.28 106.272 14.72 105.659 15.6C105.046 16.4533 104.739 17.68 104.739 19.28ZM134.377 16.68C134.377 15.8533 134.137 15.2533 133.657 14.88C133.203 14.48 132.577 14.28 131.777 14.28C131.243 14.28 130.71 14.3467 130.177 14.48C129.67 14.6133 129.23 14.8133 128.857 15.08V28.96C128.59 29.04 128.163 29.12 127.577 29.2C127.017 29.28 126.43 29.32 125.817 29.32C125.23 29.32 124.697 29.28 124.217 29.2C123.763 29.12 123.377 28.96 123.057 28.72C122.737 28.48 122.483 28.16 122.297 27.76C122.137 27.3333 122.057 26.7867 122.057 26.12V14.12C122.057 13.4 122.203 12.8133 122.497 12.36C122.817 11.9067 123.243 11.4933 123.777 11.12C124.683 10.48 125.817 9.96 127.177 9.56C128.563 9.16 130.097 8.96 131.777 8.96C134.79 8.96 137.11 9.62666 138.737 10.96C140.363 12.2667 141.177 14.0933 141.177 16.44V28.96C140.91 29.04 140.483 29.12 139.897 29.2C139.337 29.28 138.75 29.32 138.137 29.32C137.55 29.32 137.017 29.28 136.537 29.2C136.083 29.12 135.697 28.96 135.377 28.72C135.057 28.48 134.803 28.16 134.617 27.76C134.457 27.3333 134.377 26.7867 134.377 26.12V16.68ZM152.177 28.96C151.91 29.04 151.484 29.12 150.897 29.2C150.337 29.28 149.75 29.32 149.137 29.32C148.55 29.32 148.017 29.28 147.537 29.2C147.084 29.12 146.697 28.96 146.377 28.72C146.057 28.48 145.804 28.16 145.617 27.76C145.457 27.3333 145.377 26.7867 145.377 26.12V14.12C145.377 13.5067 145.484 12.9867 145.697 12.56C145.937 12.1067 146.27 11.7067 146.697 11.36C147.124 11.0133 147.644 10.7067 148.257 10.44C148.897 10.1467 149.577 9.89333 150.297 9.68C151.017 9.46667 151.764 9.30667 152.537 9.2C153.31 9.06667 154.084 9 154.857 9C156.137 9 157.15 9.25333 157.897 9.76C158.644 10.24 159.017 11.04 159.017 12.16C159.017 12.5333 158.964 12.9067 158.857 13.28C158.75 13.6267 158.617 13.9467 158.457 14.24C157.897 14.24 157.324 14.2667 156.737 14.32C156.15 14.3733 155.577 14.4533 155.017 14.56C154.457 14.6667 153.924 14.7867 153.417 14.92C152.937 15.0267 152.524 15.16 152.177 15.32V28.96ZM168.232 28.96C167.965 29.04 167.538 29.12 166.952 29.2C166.392 29.28 165.805 29.32 165.192 29.32C164.605 29.32 164.072 29.28 163.592 29.2C163.138 29.12 162.752 28.96 162.432 28.72C162.112 28.48 161.858 28.16 161.672 27.76C161.512 27.3333 161.432 26.7867 161.432 26.12V14.12C161.432 13.5067 161.538 12.9867 161.752 12.56C161.992 12.1067 162.325 11.7067 162.752 11.36C163.178 11.0133 163.698 10.7067 164.312 10.44C164.952 10.1467 165.632 9.89333 166.352 9.68C167.072 9.46667 167.818 9.30667 168.592 9.2C169.365 9.06667 170.138 9 170.912 9C172.192 9 173.205 9.25333 173.952 9.76C174.698 10.24 175.072 11.04 175.072 12.16C175.072 12.5333 175.018 12.9067 174.912 13.28C174.805 13.6267 174.672 13.9467 174.512 14.24C173.952 14.24 173.378 14.2667 172.792 14.32C172.205 14.3733 171.632 14.4533 171.072 14.56C170.512 14.6667 169.978 14.7867 169.472 14.92C168.992 15.0267 168.578 15.16 168.232 15.32V28.96ZM197.255 19.28C197.255 20.9333 197.001 22.4133 196.495 23.72C195.988 25 195.268 26.08 194.335 26.96C193.428 27.84 192.335 28.5067 191.055 28.96C189.775 29.4133 188.348 29.64 186.775 29.64C185.201 29.64 183.775 29.4 182.495 28.92C181.215 28.44 180.108 27.76 179.175 26.88C178.268 25.9733 177.561 24.88 177.055 23.6C176.548 22.32 176.295 20.88 176.295 19.28C176.295 17.7067 176.548 16.28 177.055 15C177.561 13.72 178.268 12.64 179.175 11.76C180.108 10.8533 181.215 10.16 182.495 9.68C183.775 9.2 185.201 8.96 186.775 8.96C188.348 8.96 189.775 9.21333 191.055 9.72C192.335 10.2 193.428 10.8933 194.335 11.8C195.268 12.68 195.988 13.76 196.495 15.04C197.001 16.32 197.255 17.7333 197.255 19.28ZM183.255 19.28C183.255 20.9067 183.561 22.16 184.175 23.04C184.815 23.8933 185.695 24.32 186.815 24.32C187.935 24.32 188.788 23.88 189.375 23C189.988 22.12 190.295 20.88 190.295 19.28C190.295 17.68 189.988 16.4533 189.375 15.6C188.761 14.72 187.895 14.28 186.775 14.28C185.655 14.28 184.788 14.72 184.175 15.6C183.561 16.4533 183.255 17.68 183.255 19.28ZM210.852 29.64C209.279 29.64 207.812 29.4267 206.452 29C205.119 28.5467 203.946 27.88 202.932 27C201.946 26.12 201.159 25.0133 200.572 23.68C200.012 22.3467 199.732 20.7867 199.732 19C199.732 17.24 200.012 15.7333 200.572 14.48C201.159 13.2 201.919 12.16 202.852 11.36C203.786 10.5333 204.852 9.93333 206.052 9.56C207.252 9.16 208.479 8.96 209.732 8.96C211.146 8.96 212.426 9.17333 213.572 9.6C214.746 10.0267 215.746 10.6133 216.572 11.36C217.426 12.1067 218.079 13 218.532 14.04C219.012 15.08 219.252 16.2133 219.252 17.44C219.252 18.3467 218.999 19.04 218.492 19.52C217.986 20 217.279 20.3067 216.372 20.44L206.492 21.92C206.786 22.8 207.386 23.4667 208.292 23.92C209.199 24.3467 210.239 24.56 211.412 24.56C212.506 24.56 213.532 24.4267 214.492 24.16C215.479 23.8667 216.279 23.5333 216.892 23.16C217.319 23.4267 217.679 23.8 217.972 24.28C218.266 24.76 218.412 25.2667 218.412 25.8C218.412 27 217.852 27.8933 216.732 28.48C215.879 28.9333 214.919 29.24 213.852 29.4C212.786 29.56 211.786 29.64 210.852 29.64ZM209.732 13.92C209.092 13.92 208.532 14.0267 208.052 14.24C207.599 14.4533 207.226 14.7333 206.932 15.08C206.639 15.4 206.412 15.7733 206.252 16.2C206.119 16.6 206.039 17.0133 206.012 17.44L212.852 16.32C212.772 15.7867 212.479 15.2533 211.972 14.72C211.466 14.1867 210.719 13.92 209.732 13.92Z"/>
</mask>
<path d="M11.76 5.48C12.2133 5.21333 12.8933 4.96 13.8 4.72C14.7333 4.48 15.6667 4.36 16.6 4.36C17.9333 4.36 19.1067 4.56 20.12 4.96C21.16 5.33333 21.8267 5.93333 22.12 6.76C22.6 8.14667 23.12 9.76 23.68 11.6C24.24 13.44 24.8 15.3467 25.36 17.32C25.92 19.2667 26.4667 21.2 27 23.12C27.5333 25.0133 28 26.6933 28.4 28.16C28.08 28.5333 27.6 28.8267 26.96 29.04C26.32 29.28 25.56 29.4 24.68 29.4C24.04 29.4 23.4933 29.3467 23.04 29.24C22.6133 29.1333 22.2533 28.9733 21.96 28.76C21.6933 28.5467 21.4667 28.2667 21.28 27.92C21.12 27.5733 20.9733 27.1733 20.84 26.72L20.12 23.96H12.88C12.6667 24.76 12.4533 25.5867 12.24 26.44C12.0267 27.2933 11.8133 28.12 11.6 28.92C11.2267 29.0533 10.8267 29.16 10.4 29.24C10 29.3467 9.50667 29.4 8.92 29.4C7.56 29.4 6.54667 29.1733 5.88 28.72C5.24 28.24 4.92 27.5867 4.92 26.76C4.92 26.3867 4.97333 26.0133 5.08 25.64C5.18667 25.2667 5.30667 24.8267 5.44 24.32C5.62667 23.6 5.88 22.7067 6.2 21.64C6.54667 20.5733 6.92 19.4267 7.32 18.2C7.72 16.9467 8.14667 15.6667 8.6 14.36C9.05333 13.0533 9.48 11.8267 9.88 10.68C10.28 9.50667 10.64 8.46667 10.96 7.56C11.3067 6.65333 11.5733 5.96 11.76 5.48ZM16.56 10.64C16.1867 11.76 15.76 13.0133 15.28 14.4C14.8267 15.76 14.4133 17.1467 14.04 18.56H19C18.6267 17.12 18.24 15.72 17.84 14.36C17.4667 12.9733 17.12 11.7333 16.8 10.64H16.56ZM37.9581 28.96C37.6915 29.04 37.2648 29.12 36.6781 29.2C36.1181 29.28 35.5315 29.32 34.9181 29.32C34.3315 29.32 33.7981 29.28 33.3181 29.2C32.8648 29.12 32.4781 28.96 32.1581 28.72C31.8381 28.48 31.5848 28.16 31.3981 27.76C31.2381 27.3333 31.1581 26.7867 31.1581 26.12V14.12C31.1581 13.5067 31.2648 12.9867 31.4781 12.56C31.7181 12.1067 32.0515 11.7067 32.4781 11.36C32.9048 11.0133 33.4248 10.7067 34.0381 10.44C34.6781 10.1467 35.3581 9.89333 36.0781 9.68C36.7981 9.46667 37.5448 9.30667 38.3181 9.2C39.0915 9.06667 39.8648 9 40.6381 9C41.9181 9 42.9315 9.25333 43.6781 9.76C44.4248 10.24 44.7981 11.04 44.7981 12.16C44.7981 12.5333 44.7448 12.9067 44.6381 13.28C44.5315 13.6267 44.3981 13.9467 44.2381 14.24C43.6781 14.24 43.1048 14.2667 42.5181 14.32C41.9315 14.3733 41.3581 14.4533 40.7981 14.56C40.2381 14.6667 39.7048 14.7867 39.1981 14.92C38.7181 15.0267 38.3048 15.16 37.9581 15.32V28.96ZM47.4434 4.16C47.4434 3.14666 47.7768 2.29333 48.4434 1.6C49.1368 0.906665 50.0434 0.559999 51.1634 0.559999C52.2834 0.559999 53.1768 0.906665 53.8434 1.6C54.5368 2.29333 54.8834 3.14666 54.8834 4.16C54.8834 5.17333 54.5368 6.02667 53.8434 6.72C53.1768 7.41333 52.2834 7.76 51.1634 7.76C50.0434 7.76 49.1368 7.41333 48.4434 6.72C47.7768 6.02667 47.4434 5.17333 47.4434 4.16ZM54.5634 28.96C54.2701 29.0133 53.8301 29.08 53.2434 29.16C52.6834 29.2667 52.1101 29.32 51.5234 29.32C50.9368 29.32 50.4034 29.28 49.9234 29.2C49.4701 29.12 49.0834 28.96 48.7634 28.72C48.4434 28.48 48.1901 28.16 48.0034 27.76C47.8434 27.3333 47.7634 26.7867 47.7634 26.12V9.84C48.0568 9.78667 48.4834 9.72 49.0434 9.64C49.6301 9.53333 50.2168 9.48 50.8034 9.48C51.3901 9.48 51.9101 9.52 52.3634 9.6C52.8434 9.68 53.2434 9.84 53.5634 10.08C53.8834 10.32 54.1234 10.6533 54.2834 11.08C54.4701 11.48 54.5634 12.0133 54.5634 12.68V28.96ZM84.1803 23.04C83.8336 23.3333 83.3803 23.5733 82.8203 23.76C82.287 23.92 81.6603 24 80.9403 24C79.9803 24 79.1803 23.88 78.5403 23.64C77.927 23.4 77.527 22.9867 77.3403 22.4C76.5936 20.0533 75.9803 18.16 75.5003 16.72C75.0203 15.2533 74.647 13.9733 74.3803 12.88H74.1803C74.1003 14.4533 74.0336 15.8933 73.9803 17.2C73.9536 18.48 73.927 19.7333 73.9003 20.96C73.9003 22.1867 73.8736 23.4267 73.8203 24.68C73.7936 25.9333 73.7403 27.32 73.6603 28.84C73.3136 28.9733 72.8603 29.08 72.3003 29.16C71.7403 29.2667 71.1803 29.32 70.6203 29.32C69.447 29.32 68.527 29.1333 67.8603 28.76C67.2203 28.3867 66.9003 27.7067 66.9003 26.72L68.0603 6.32C68.2736 5.97333 68.7403 5.6 69.4603 5.2C70.1803 4.8 71.1936 4.6 72.5003 4.6C73.9136 4.6 75.0203 4.82667 75.8203 5.28C76.6203 5.70667 77.207 6.41333 77.5803 7.4C77.8203 8.04 78.0736 8.77333 78.3403 9.6C78.6336 10.4267 78.9136 11.28 79.1803 12.16C79.4736 13.04 79.7536 13.92 80.0203 14.8C80.287 15.6533 80.527 16.4267 80.7403 17.12H80.9403C81.5803 14.88 82.2203 12.72 82.8603 10.64C83.5003 8.53333 84.087 6.77333 84.6203 5.36C85.0203 5.14667 85.527 4.97333 86.1403 4.84C86.7803 4.68 87.487 4.6 88.2603 4.6C89.567 4.6 90.6336 4.8 91.4603 5.2C92.287 5.57333 92.767 6.12 92.9003 6.84C93.007 7.37333 93.1136 8.2 93.2203 9.32C93.3536 10.4133 93.487 11.6533 93.6203 13.04C93.7536 14.4267 93.887 15.8933 94.0203 17.44C94.1536 18.9867 94.2736 20.48 94.3803 21.92C94.5136 23.3333 94.6203 24.64 94.7003 25.84C94.7803 27.0133 94.8336 27.92 94.8603 28.56C94.407 28.8267 93.927 29.0133 93.4203 29.12C92.9403 29.2533 92.3136 29.32 91.5403 29.32C90.527 29.32 89.6736 29.1467 88.9803 28.8C88.287 28.4533 87.9136 27.7733 87.8603 26.76C87.7003 23.8533 87.5936 21.24 87.5403 18.92C87.5136 16.6 87.4603 14.6533 87.3803 13.08H87.1803C86.9136 14.12 86.527 15.4267 86.0203 17C85.5136 18.5733 84.9003 20.5867 84.1803 23.04ZM118.739 19.28C118.739 20.9333 118.486 22.4133 117.979 23.72C117.472 25 116.752 26.08 115.819 26.96C114.912 27.84 113.819 28.5067 112.539 28.96C111.259 29.4133 109.832 29.64 108.259 29.64C106.686 29.64 105.259 29.4 103.979 28.92C102.699 28.44 101.592 27.76 100.659 26.88C99.7524 25.9733 99.0457 24.88 98.5391 23.6C98.0324 22.32 97.7791 20.88 97.7791 19.28C97.7791 17.7067 98.0324 16.28 98.5391 15C99.0457 13.72 99.7524 12.64 100.659 11.76C101.592 10.8533 102.699 10.16 103.979 9.68C105.259 9.2 106.686 8.96 108.259 8.96C109.832 8.96 111.259 9.21333 112.539 9.72C113.819 10.2 114.912 10.8933 115.819 11.8C116.752 12.68 117.472 13.76 117.979 15.04C118.486 16.32 118.739 17.7333 118.739 19.28ZM104.739 19.28C104.739 20.9067 105.046 22.16 105.659 23.04C106.299 23.8933 107.179 24.32 108.299 24.32C109.419 24.32 110.272 23.88 110.859 23C111.472 22.12 111.779 20.88 111.779 19.28C111.779 17.68 111.472 16.4533 110.859 15.6C110.246 14.72 109.379 14.28 108.259 14.28C107.139 14.28 106.272 14.72 105.659 15.6C105.046 16.4533 104.739 17.68 104.739 19.28ZM134.377 16.68C134.377 15.8533 134.137 15.2533 133.657 14.88C133.203 14.48 132.577 14.28 131.777 14.28C131.243 14.28 130.71 14.3467 130.177 14.48C129.67 14.6133 129.23 14.8133 128.857 15.08V28.96C128.59 29.04 128.163 29.12 127.577 29.2C127.017 29.28 126.43 29.32 125.817 29.32C125.23 29.32 124.697 29.28 124.217 29.2C123.763 29.12 123.377 28.96 123.057 28.72C122.737 28.48 122.483 28.16 122.297 27.76C122.137 27.3333 122.057 26.7867 122.057 26.12V14.12C122.057 13.4 122.203 12.8133 122.497 12.36C122.817 11.9067 123.243 11.4933 123.777 11.12C124.683 10.48 125.817 9.96 127.177 9.56C128.563 9.16 130.097 8.96 131.777 8.96C134.79 8.96 137.11 9.62666 138.737 10.96C140.363 12.2667 141.177 14.0933 141.177 16.44V28.96C140.91 29.04 140.483 29.12 139.897 29.2C139.337 29.28 138.75 29.32 138.137 29.32C137.55 29.32 137.017 29.28 136.537 29.2C136.083 29.12 135.697 28.96 135.377 28.72C135.057 28.48 134.803 28.16 134.617 27.76C134.457 27.3333 134.377 26.7867 134.377 26.12V16.68ZM152.177 28.96C151.91 29.04 151.484 29.12 150.897 29.2C150.337 29.28 149.75 29.32 149.137 29.32C148.55 29.32 148.017 29.28 147.537 29.2C147.084 29.12 146.697 28.96 146.377 28.72C146.057 28.48 145.804 28.16 145.617 27.76C145.457 27.3333 145.377 26.7867 145.377 26.12V14.12C145.377 13.5067 145.484 12.9867 145.697 12.56C145.937 12.1067 146.27 11.7067 146.697 11.36C147.124 11.0133 147.644 10.7067 148.257 10.44C148.897 10.1467 149.577 9.89333 150.297 9.68C151.017 9.46667 151.764 9.30667 152.537 9.2C153.31 9.06667 154.084 9 154.857 9C156.137 9 157.15 9.25333 157.897 9.76C158.644 10.24 159.017 11.04 159.017 12.16C159.017 12.5333 158.964 12.9067 158.857 13.28C158.75 13.6267 158.617 13.9467 158.457 14.24C157.897 14.24 157.324 14.2667 156.737 14.32C156.15 14.3733 155.577 14.4533 155.017 14.56C154.457 14.6667 153.924 14.7867 153.417 14.92C152.937 15.0267 152.524 15.16 152.177 15.32V28.96ZM168.232 28.96C167.965 29.04 167.538 29.12 166.952 29.2C166.392 29.28 165.805 29.32 165.192 29.32C164.605 29.32 164.072 29.28 163.592 29.2C163.138 29.12 162.752 28.96 162.432 28.72C162.112 28.48 161.858 28.16 161.672 27.76C161.512 27.3333 161.432 26.7867 161.432 26.12V14.12C161.432 13.5067 161.538 12.9867 161.752 12.56C161.992 12.1067 162.325 11.7067 162.752 11.36C163.178 11.0133 163.698 10.7067 164.312 10.44C164.952 10.1467 165.632 9.89333 166.352 9.68C167.072 9.46667 167.818 9.30667 168.592 9.2C169.365 9.06667 170.138 9 170.912 9C172.192 9 173.205 9.25333 173.952 9.76C174.698 10.24 175.072 11.04 175.072 12.16C175.072 12.5333 175.018 12.9067 174.912 13.28C174.805 13.6267 174.672 13.9467 174.512 14.24C173.952 14.24 173.378 14.2667 172.792 14.32C172.205 14.3733 171.632 14.4533 171.072 14.56C170.512 14.6667 169.978 14.7867 169.472 14.92C168.992 15.0267 168.578 15.16 168.232 15.32V28.96ZM197.255 19.28C197.255 20.9333 197.001 22.4133 196.495 23.72C195.988 25 195.268 26.08 194.335 26.96C193.428 27.84 192.335 28.5067 191.055 28.96C189.775 29.4133 188.348 29.64 186.775 29.64C185.201 29.64 183.775 29.4 182.495 28.92C181.215 28.44 180.108 27.76 179.175 26.88C178.268 25.9733 177.561 24.88 177.055 23.6C176.548 22.32 176.295 20.88 176.295 19.28C176.295 17.7067 176.548 16.28 177.055 15C177.561 13.72 178.268 12.64 179.175 11.76C180.108 10.8533 181.215 10.16 182.495 9.68C183.775 9.2 185.201 8.96 186.775 8.96C188.348 8.96 189.775 9.21333 191.055 9.72C192.335 10.2 193.428 10.8933 194.335 11.8C195.268 12.68 195.988 13.76 196.495 15.04C197.001 16.32 197.255 17.7333 197.255 19.28ZM183.255 19.28C183.255 20.9067 183.561 22.16 184.175 23.04C184.815 23.8933 185.695 24.32 186.815 24.32C187.935 24.32 188.788 23.88 189.375 23C189.988 22.12 190.295 20.88 190.295 19.28C190.295 17.68 189.988 16.4533 189.375 15.6C188.761 14.72 187.895 14.28 186.775 14.28C185.655 14.28 184.788 14.72 184.175 15.6C183.561 16.4533 183.255 17.68 183.255 19.28ZM210.852 29.64C209.279 29.64 207.812 29.4267 206.452 29C205.119 28.5467 203.946 27.88 202.932 27C201.946 26.12 201.159 25.0133 200.572 23.68C200.012 22.3467 199.732 20.7867 199.732 19C199.732 17.24 200.012 15.7333 200.572 14.48C201.159 13.2 201.919 12.16 202.852 11.36C203.786 10.5333 204.852 9.93333 206.052 9.56C207.252 9.16 208.479 8.96 209.732 8.96C211.146 8.96 212.426 9.17333 213.572 9.6C214.746 10.0267 215.746 10.6133 216.572 11.36C217.426 12.1067 218.079 13 218.532 14.04C219.012 15.08 219.252 16.2133 219.252 17.44C219.252 18.3467 218.999 19.04 218.492 19.52C217.986 20 217.279 20.3067 216.372 20.44L206.492 21.92C206.786 22.8 207.386 23.4667 208.292 23.92C209.199 24.3467 210.239 24.56 211.412 24.56C212.506 24.56 213.532 24.4267 214.492 24.16C215.479 23.8667 216.279 23.5333 216.892 23.16C217.319 23.4267 217.679 23.8 217.972 24.28C218.266 24.76 218.412 25.2667 218.412 25.8C218.412 27 217.852 27.8933 216.732 28.48C215.879 28.9333 214.919 29.24 213.852 29.4C212.786 29.56 211.786 29.64 210.852 29.64ZM209.732 13.92C209.092 13.92 208.532 14.0267 208.052 14.24C207.599 14.4533 207.226 14.7333 206.932 15.08C206.639 15.4 206.412 15.7733 206.252 16.2C206.119 16.6 206.039 17.0133 206.012 17.44L212.852 16.32C212.772 15.7867 212.479 15.2533 211.972 14.72C211.466 14.1867 210.719 13.92 209.732 13.92Z" fill="white"/>
<path d="M11.76 5.48L11.253 4.61807L10.9538 4.79405L10.828 5.11755L11.76 5.48ZM13.8 4.72L13.551 3.75148L13.5441 3.75329L13.8 4.72ZM20.12 4.96L19.7528 5.89015L19.7674 5.8959L19.7821 5.90119L20.12 4.96ZM22.12 6.76L23.065 6.43288L23.0624 6.42559L22.12 6.76ZM23.68 11.6L24.6367 11.3088L24.6367 11.3088L23.68 11.6ZM25.36 17.32L24.398 17.593L24.399 17.5965L25.36 17.32ZM27 23.12L26.0365 23.3876L26.0375 23.3911L27 23.12ZM28.4 28.16L29.1593 28.8108L29.5042 28.4083L29.3648 27.8969L28.4 28.16ZM26.96 29.04L26.6438 28.0913L26.6262 28.0972L26.6089 28.1037L26.96 29.04ZM23.04 29.24L22.7974 30.2102L22.811 30.2134L23.04 29.24ZM21.96 28.76L21.3353 29.5409L21.3532 29.5552L21.3718 29.5687L21.96 28.76ZM21.28 27.92L20.372 28.3391L20.3849 28.367L20.3995 28.3941L21.28 27.92ZM20.84 26.72L19.8724 26.9724L19.8763 26.9874L19.8806 27.0022L20.84 26.72ZM20.12 23.96L21.0876 23.7076L20.8926 22.96H20.12V23.96ZM12.88 23.96V22.96H12.1117L11.9138 23.7023L12.88 23.96ZM12.24 26.44L11.2699 26.1975L11.2699 26.1975L12.24 26.44ZM11.6 28.92L11.9363 29.8617L12.4309 29.6851L12.5662 29.1777L11.6 28.92ZM10.4 29.24L10.2157 28.2571L10.1787 28.2641L10.1423 28.2738L10.4 29.24ZM5.88 28.72L5.28 29.52L5.29853 29.5339L5.31769 29.5469L5.88 28.72ZM5.08 25.64L4.11848 25.3653L4.11848 25.3653L5.08 25.64ZM5.44 24.32L6.40708 24.5745L6.408 24.571L5.44 24.32ZM6.2 21.64L5.24897 21.3309L5.24545 21.3417L5.24217 21.3527L6.2 21.64ZM7.32 18.2L8.27075 18.51L8.27266 18.504L7.32 18.2ZM8.6 14.36L7.65524 14.0322L7.65524 14.0322L8.6 14.36ZM9.88 10.68L10.8242 11.0094L10.8265 11.0027L9.88 10.68ZM10.96 7.56L10.0259 7.20286L10.0213 7.21496L10.017 7.22718L10.96 7.56ZM16.56 10.64V9.64H15.8392L15.6113 10.3238L16.56 10.64ZM15.28 14.4L14.335 14.0729L14.3313 14.0838L15.28 14.4ZM14.04 18.56L13.0732 18.3046L12.7416 19.56H14.04V18.56ZM19 18.56V19.56H20.2923L19.968 18.309L19 18.56ZM17.84 14.36L16.8744 14.62L16.8774 14.6311L16.8806 14.6422L17.84 14.36ZM16.8 10.64L17.7597 10.3591L17.5493 9.64H16.8V10.64ZM12.267 6.34193C12.6033 6.14411 13.18 5.91855 14.0559 5.6867L13.5441 3.75329C12.6067 4.00144 11.8234 4.28255 11.253 4.61807L12.267 6.34193ZM14.049 5.68849C14.9037 5.46873 15.7534 5.36 16.6 5.36V3.36C15.58 3.36 14.563 3.49127 13.551 3.7515L14.049 5.68849ZM16.6 5.36C17.8349 5.36 18.8794 5.54536 19.7528 5.89015L20.4872 4.02984C19.334 3.57463 18.0317 3.36 16.6 3.36V5.36ZM19.7821 5.90119C20.6197 6.20185 21.0098 6.62173 21.1776 7.09441L23.0624 6.42559C22.6435 5.24493 21.7003 4.46482 20.4579 4.0188L19.7821 5.90119ZM21.175 7.08711C21.6499 8.45888 22.1659 10.0598 22.7233 11.8912L24.6367 11.3088C24.0741 9.46024 23.5501 7.83445 23.065 6.43289L21.175 7.08711ZM22.7233 11.8912C23.2814 13.7247 23.8396 15.6253 24.398 17.593L26.322 17.047C25.7604 15.068 25.1986 13.1553 24.6367 11.3088L22.7233 11.8912ZM24.399 17.5965C24.9581 19.5402 25.504 21.4706 26.0365 23.3876L27.9635 22.8524C27.4294 20.9294 26.8819 18.9931 26.321 17.0435L24.399 17.5965ZM26.0375 23.3911C26.5702 25.2825 27.0361 26.9598 27.4352 28.4231L29.3648 27.8969C28.9639 26.4269 28.4964 24.7441 27.9625 22.8489L26.0375 23.3911ZM27.6407 27.5092C27.4747 27.7029 27.1733 27.9148 26.6438 28.0913L27.2762 29.9887C28.0267 29.7385 28.6853 29.3637 29.1593 28.8108L27.6407 27.5092ZM26.6089 28.1037C26.1082 28.2914 25.4729 28.4 24.68 28.4V30.4C25.6471 30.4 26.5318 30.2686 27.3111 29.9763L26.6089 28.1037ZM24.68 28.4C24.0906 28.4 23.6253 28.3504 23.269 28.2666L22.811 30.2134C23.3614 30.3429 23.9894 30.4 24.68 30.4V28.4ZM23.2825 28.2699C22.9546 28.1879 22.7182 28.0749 22.5482 27.9513L21.3718 29.5687C21.7885 29.8717 22.2721 30.0788 22.7975 30.2101L23.2825 28.2699ZM22.5847 27.9791C22.4379 27.8617 22.293 27.6921 22.1605 27.4459L20.3995 28.3941C20.6403 28.8412 20.9488 29.2317 21.3353 29.5409L22.5847 27.9791ZM22.188 27.5009C22.0525 27.2075 21.922 26.8549 21.7994 26.4378L19.8806 27.0022C20.0246 27.4918 20.1875 27.9391 20.372 28.3391L22.188 27.5009ZM21.8076 26.4676L21.0876 23.7076L19.1524 24.2124L19.8724 26.9724L21.8076 26.4676ZM20.12 22.96H12.88V24.96H20.12V22.96ZM11.9138 23.7023C11.699 24.5077 11.4844 25.3394 11.2699 26.1975L13.2101 26.6825C13.4223 25.8339 13.6343 25.0123 13.8462 24.2177L11.9138 23.7023ZM11.2699 26.1975C11.0577 27.0461 10.8457 27.8677 10.6338 28.6623L12.5662 29.1777C12.781 28.3723 12.9956 27.5406 13.2101 26.6825L11.2699 26.1975ZM11.2637 27.9783C10.9443 28.0923 10.5955 28.1859 10.2157 28.2571L10.5843 30.2229C11.0578 30.1341 11.5091 30.0143 11.9363 29.8617L11.2637 27.9783ZM10.1423 28.2738C9.85323 28.3509 9.4527 28.4 8.92 28.4V30.4C9.56063 30.4 10.1468 30.3425 10.6577 30.2062L10.1423 28.2738ZM8.92 28.4C7.63715 28.4 6.86419 28.18 6.44231 27.8931L5.31769 29.5469C6.22914 30.1667 7.48285 30.4 8.92 30.4V28.4ZM6.48 27.92C6.1015 27.6361 5.92 27.2842 5.92 26.76H3.92C3.92 27.8891 4.3785 28.8439 5.28 29.52L6.48 27.92ZM5.92 26.76C5.92 26.4832 5.95936 26.2023 6.04152 25.9147L4.11848 25.3653C3.98731 25.8244 3.92 26.2901 3.92 26.76H5.92ZM6.04152 25.9147C6.15064 25.5328 6.27253 25.0858 6.40707 24.5745L4.47293 24.0655C4.3408 24.5676 4.22269 25.0005 4.11848 25.3653L6.04152 25.9147ZM6.408 24.571C6.59037 23.8675 6.83986 22.9872 7.15783 21.9273L5.24217 21.3527C4.92014 22.4261 4.66296 23.3325 4.472 24.069L6.408 24.571ZM7.15103 21.9491C7.49759 20.8828 7.87082 19.7364 8.27073 18.51L6.36927 17.89C5.96918 19.1169 5.59575 20.2639 5.24897 21.3309L7.15103 21.9491ZM8.27266 18.504C8.67 17.259 9.09402 15.987 9.54476 14.6878L7.65524 14.0322C7.19932 15.3464 6.77 16.6343 6.36734 17.896L8.27266 18.504ZM9.54476 14.6878C9.99793 13.3816 10.4244 12.1554 10.8242 11.0094L8.9358 10.3506C8.53559 11.4979 8.10874 12.7251 7.65524 14.0322L9.54476 14.6878ZM10.8265 11.0027C11.2257 9.83182 11.5845 8.79531 11.903 7.89282L10.017 7.22718C9.69554 8.13802 9.33433 9.18151 8.93349 10.3573L10.8265 11.0027ZM11.8941 7.91714C12.2405 7.01099 12.5064 6.31976 12.692 5.84245L10.828 5.11755C10.6403 5.60024 10.3728 6.29568 10.0259 7.20286L11.8941 7.91714ZM15.6113 10.3238C15.2394 11.4394 14.814 12.689 14.335 14.0729L16.225 14.7271C16.706 13.3376 17.1339 12.0806 17.5087 10.9562L15.6113 10.3238ZM14.3313 14.0838C13.8712 15.4642 13.4518 16.8712 13.0732 18.3046L15.0068 18.8154C15.3749 17.4221 15.7822 16.0558 16.2287 14.7162L14.3313 14.0838ZM14.04 19.56H19V17.56H14.04V19.56ZM19.968 18.309C19.5921 16.8591 19.2026 15.4487 18.7994 14.0778L16.8806 14.6422C17.2774 15.9913 17.6612 17.3809 18.032 18.811L19.968 18.309ZM18.8056 14.1C18.4309 12.7081 18.0822 11.4609 17.7597 10.3591L15.8403 10.9209C16.1578 12.0058 16.5025 13.2386 16.8744 14.62L18.8056 14.1ZM16.8 9.64H16.56V11.64H16.8V9.64ZM37.9581 28.96L38.2455 29.9178L38.9581 29.704V28.96H37.9581ZM36.6781 29.2L36.543 28.2091L36.5367 28.2101L36.6781 29.2ZM33.3181 29.2L33.1443 30.1848L33.1537 30.1864L33.3181 29.2ZM32.1581 28.72L32.7581 27.92L32.7581 27.92L32.1581 28.72ZM31.3981 27.76L30.4618 28.1111L30.4755 28.1476L30.4919 28.1829L31.3981 27.76ZM31.4781 12.56L30.5943 12.0921L30.5889 12.1024L30.5837 12.1128L31.4781 12.56ZM32.4781 11.36L33.1087 12.1361L33.1087 12.1361L32.4781 11.36ZM34.0381 10.44L34.4369 11.3571L34.4459 11.3532L34.4548 11.3491L34.0381 10.44ZM36.0781 9.68L36.3622 10.6388L36.3622 10.6388L36.0781 9.68ZM38.3181 9.2L38.4548 10.1906L38.4714 10.1883L38.488 10.1855L38.3181 9.2ZM43.6781 9.76L43.1166 10.5875L43.1269 10.5945L43.1374 10.6012L43.6781 9.76ZM44.6381 13.28L45.5939 13.5741L45.5969 13.5644L45.5997 13.5547L44.6381 13.28ZM44.2381 14.24V15.24H44.8318L45.116 14.7189L44.2381 14.24ZM42.5181 14.32L42.6087 15.3159L42.6087 15.3159L42.5181 14.32ZM40.7981 14.56L40.611 13.5777L40.611 13.5777L40.7981 14.56ZM39.1981 14.92L39.4151 15.8962L39.4339 15.892L39.4526 15.8871L39.1981 14.92ZM37.9581 15.32L37.5391 14.412L36.9581 14.6802V15.32H37.9581ZM37.6708 28.0022C37.4835 28.0584 37.1222 28.1302 36.543 28.2092L36.8132 30.1908C37.4074 30.1098 37.8994 30.0216 38.2455 29.9178L37.6708 28.0022ZM36.5367 28.2101C36.0273 28.2828 35.4881 28.32 34.9181 28.32V30.32C35.5749 30.32 36.209 30.2772 36.8195 30.1899L36.5367 28.2101ZM34.9181 28.32C34.3757 28.32 33.8985 28.2829 33.4825 28.2136L33.1537 30.1864C33.6978 30.2771 34.2872 30.32 34.9181 30.32V28.32ZM33.4919 28.2152C33.1698 28.1584 32.9348 28.0525 32.7581 27.92L31.5581 29.52C32.0214 29.8675 32.5598 30.0816 33.1443 30.1848L33.4919 28.2152ZM32.7581 27.92C32.5828 27.7885 32.4288 27.6039 32.3043 27.3371L30.4919 28.1829C30.7408 28.7161 31.0934 29.1715 31.5581 29.52L32.7581 27.92ZM32.3345 27.4089C32.2312 27.1337 32.1581 26.7173 32.1581 26.12H30.1581C30.1581 26.8561 30.245 27.533 30.4618 28.1111L32.3345 27.4089ZM32.1581 26.12V14.12H30.1581V26.12H32.1581ZM32.1581 14.12C32.1581 13.619 32.2456 13.2611 32.3726 13.0072L30.5837 12.1128C30.284 12.7122 30.1581 13.3944 30.1581 14.12H32.1581ZM32.3619 13.0279C32.5347 12.7016 32.7787 12.4042 33.1087 12.1361L31.8475 10.5839C31.3242 11.0091 30.9016 11.5117 30.5943 12.0921L32.3619 13.0279ZM33.1087 12.1361C33.4516 11.8575 33.8895 11.595 34.4369 11.3571L33.6394 9.52293C32.96 9.8183 32.358 10.1691 31.8475 10.5839L33.1087 12.1361ZM34.4548 11.3491C35.0491 11.0767 35.6845 10.8396 36.3622 10.6388L35.794 8.7212C35.0317 8.94708 34.3072 9.21666 33.6215 9.53093L34.4548 11.3491ZM36.3622 10.6388C37.0321 10.4403 37.7293 10.2907 38.4548 10.1906L38.1815 8.20938C37.3602 8.32265 36.5642 8.49301 35.794 8.7212L36.3622 10.6388ZM38.488 10.1855C39.2061 10.0617 39.9226 10 40.6381 10V8C39.807 8 38.9768 8.07167 38.1482 8.21454L38.488 10.1855ZM40.6381 10C41.7984 10 42.5916 10.2312 43.1166 10.5875L44.2396 8.93252C43.2713 8.27544 42.0379 8 40.6381 8V10ZM43.1374 10.6012C43.5219 10.8484 43.7981 11.2789 43.7981 12.16H45.7981C45.7981 10.8011 45.3277 9.63163 44.2189 8.91882L43.1374 10.6012ZM43.7981 12.16C43.7981 12.4368 43.7588 12.7177 43.6766 13.0053L45.5997 13.5547C45.7308 13.0956 45.7981 12.6299 45.7981 12.16H43.7981ZM43.6823 12.9859C43.5937 13.2739 43.4855 13.5314 43.3602 13.7611L45.116 14.7189C45.3107 14.3619 45.4692 13.9794 45.5939 13.5741L43.6823 12.9859ZM44.2381 13.24C43.6464 13.24 43.0428 13.2682 42.4276 13.3241L42.6087 15.3159C43.1668 15.2652 43.7099 15.24 44.2381 15.24V13.24ZM42.4276 13.3241C41.8096 13.3803 41.204 13.4647 40.611 13.5777L40.9852 15.5423C41.5122 15.442 42.0533 15.3664 42.6087 15.3159L42.4276 13.3241ZM40.611 13.5777C40.0303 13.6883 39.4744 13.8132 38.9436 13.9529L39.4526 15.8871C39.9352 15.7601 40.4459 15.6451 40.9852 15.5423L40.611 13.5777ZM38.9812 13.9438C38.4504 14.0618 37.9659 14.215 37.5391 14.412L38.3772 16.228C38.6437 16.105 38.9859 15.9916 39.4151 15.8962L38.9812 13.9438ZM36.9581 15.32V28.96H38.9581V15.32H36.9581ZM48.4434 1.6L47.7363 0.89289L47.7294 0.899822L47.7226 0.906889L48.4434 1.6ZM53.8434 1.6L53.1226 2.29311L53.1294 2.30017L53.1363 2.3071L53.8434 1.6ZM53.8434 6.72L53.1363 6.01289L53.1294 6.01982L53.1226 6.02689L53.8434 6.72ZM48.4434 6.72L47.7226 7.41311L47.7294 7.42017L47.7363 7.4271L48.4434 6.72ZM54.5634 28.96L54.7423 29.9439L55.5634 29.7946V28.96H54.5634ZM53.2434 29.16L53.1083 28.1692L53.0822 28.1727L53.0563 28.1777L53.2434 29.16ZM49.9234 29.2L49.7496 30.1848L49.759 30.1864L49.9234 29.2ZM48.7634 28.72L48.1634 29.52L48.1634 29.52L48.7634 28.72ZM48.0034 27.76L47.0671 28.1111L47.0808 28.1476L47.0973 28.1829L48.0034 27.76ZM47.7634 9.84L47.5846 8.85613L46.7634 9.00542V9.84H47.7634ZM49.0434 9.64L49.1849 10.6299L49.2036 10.6273L49.2223 10.6239L49.0434 9.64ZM52.3634 9.6L52.1896 10.5848L52.199 10.5864L52.3634 9.6ZM53.5634 10.08L52.9634 10.88L52.9634 10.88L53.5634 10.08ZM54.2834 11.08L53.3471 11.4311L53.3608 11.4676L53.3773 11.5029L54.2834 11.08ZM48.4434 4.16C48.4434 3.38981 48.687 2.78942 49.1643 2.29311L47.7226 0.906889C46.8665 1.79724 46.4434 2.90352 46.4434 4.16H48.4434ZM49.1505 2.3071C49.6292 1.82843 50.2677 1.56 51.1634 1.56V-0.440001C49.8192 -0.440001 48.6443 -0.0151044 47.7363 0.89289L49.1505 2.3071ZM51.1634 1.56C52.06 1.56 52.6757 1.82834 53.1226 2.29311L54.5643 0.906888C53.6778 -0.0150071 52.5068 -0.440001 51.1634 -0.440001V1.56ZM53.1363 2.3071C53.6352 2.806 53.8834 3.40196 53.8834 4.16H55.8834C55.8834 2.89137 55.4383 1.78066 54.5505 0.892891L53.1363 2.3071ZM53.8834 4.16C53.8834 4.91803 53.6352 5.51399 53.1363 6.01289L54.5505 7.42711C55.4383 6.53934 55.8834 5.42863 55.8834 4.16H53.8834ZM53.1226 6.02689C52.6757 6.49166 52.06 6.76 51.1634 6.76V8.76C52.5068 8.76 53.6778 8.335 54.5643 7.41311L53.1226 6.02689ZM51.1634 6.76C50.2677 6.76 49.6292 6.49156 49.1505 6.01289L47.7363 7.4271C48.6443 8.3351 49.8192 8.76 51.1634 8.76V6.76ZM49.1643 6.02689C48.687 5.53058 48.4434 4.93019 48.4434 4.16H46.4434C46.4434 5.41648 46.8665 6.52276 47.7226 7.41311L49.1643 6.02689ZM54.3846 27.9761C54.1138 28.0254 53.6916 28.0896 53.1083 28.1692L53.3786 30.1508C53.9686 30.0704 54.4264 30.0013 54.7423 29.9439L54.3846 27.9761ZM53.0563 28.1777C52.5598 28.2722 52.0491 28.32 51.5234 28.32V30.32C52.1711 30.32 52.8071 30.2611 53.4305 30.1423L53.0563 28.1777ZM51.5234 28.32C50.981 28.32 50.5038 28.2829 50.0878 28.2136L49.759 30.1864C50.3031 30.2771 50.8925 30.32 51.5234 30.32V28.32ZM50.0972 28.2152C49.7751 28.1584 49.5401 28.0525 49.3634 27.92L48.1634 29.52C48.6268 29.8675 49.1651 30.0816 49.7497 30.1848L50.0972 28.2152ZM49.3634 27.92C49.1882 27.7885 49.0341 27.6039 48.9096 27.3371L47.0973 28.1829C47.3461 28.7161 47.6987 29.1715 48.1634 29.52L49.3634 27.92ZM48.9398 27.4089C48.8366 27.1337 48.7634 26.7173 48.7634 26.12H46.7634C46.7634 26.8561 46.8503 27.533 47.0671 28.1111L48.9398 27.4089ZM48.7634 26.12V9.84H46.7634V26.12H48.7634ZM47.9423 10.8239C48.2167 10.774 48.6284 10.7094 49.1849 10.6299L48.902 8.65005C48.3385 8.73056 47.8969 8.79935 47.5846 8.85613L47.9423 10.8239ZM49.2223 10.6239C49.7509 10.5278 50.2777 10.48 50.8034 10.48V8.48C50.1558 8.48 49.5093 8.53891 48.8646 8.65613L49.2223 10.6239ZM50.8034 10.48C51.3468 10.48 51.8068 10.5172 52.1897 10.5848L52.5372 8.61522C52.0134 8.52278 51.4334 8.48 50.8034 8.48V10.48ZM52.199 10.5864C52.5548 10.6457 52.7965 10.7548 52.9634 10.88L54.1634 9.28C53.6904 8.92522 53.1321 8.71431 52.5278 8.61361L52.199 10.5864ZM52.9634 10.88C53.1104 10.9902 53.2445 11.1576 53.3471 11.4311L55.2198 10.7289C55.0023 10.1491 54.6565 9.6498 54.1634 9.28L52.9634 10.88ZM53.3773 11.5029C53.4788 11.7204 53.5634 12.0917 53.5634 12.68H55.5634C55.5634 11.935 55.4615 11.2396 55.1896 10.6571L53.3773 11.5029ZM53.5634 12.68V28.96H55.5634V12.68H53.5634ZM84.1803 23.04L84.8263 23.8034L85.0553 23.6095L85.1398 23.3216L84.1803 23.04ZM82.8203 23.76L83.1077 24.7178L83.1222 24.7135L83.1365 24.7087L82.8203 23.76ZM78.5403 23.64L78.1759 24.5712L78.1825 24.5738L78.1892 24.5763L78.5403 23.64ZM77.3403 22.4L76.3874 22.7032L76.3874 22.7032L77.3403 22.4ZM75.5003 16.72L74.5499 17.031L74.5516 17.0362L75.5003 16.72ZM74.3803 12.88L75.3518 12.643L75.1657 11.88H74.3803V12.88ZM74.1803 12.88V11.88H73.2299L73.1816 12.8292L74.1803 12.88ZM73.9803 17.2L72.9811 17.1592L72.9807 17.1692L72.9805 17.1792L73.9803 17.2ZM73.9003 20.96L72.9005 20.9383L72.9003 20.9491V20.96H73.9003ZM73.8203 24.68L72.8212 24.6375L72.8208 24.6481L72.8205 24.6587L73.8203 24.68ZM73.6603 28.84L74.0193 29.7733L74.6248 29.5404L74.6589 28.8926L73.6603 28.84ZM72.3003 29.16L72.1589 28.1701L72.136 28.1733L72.1132 28.1777L72.3003 29.16ZM67.8603 28.76L67.3564 29.6238L67.364 29.6282L67.3717 29.6325L67.8603 28.76ZM66.9003 26.72L65.9019 26.6632L65.9003 26.6916V26.72H66.9003ZM68.0603 6.32L67.2087 5.7959L67.0763 6.01103L67.0619 6.26323L68.0603 6.32ZM75.8203 5.28L75.3273 6.15002L75.3384 6.15633L75.3497 6.16235L75.8203 5.28ZM77.5803 7.4L78.5166 7.04887L78.5156 7.04611L77.5803 7.4ZM78.3403 9.6L77.3886 9.907L77.393 9.92077L77.3979 9.93441L78.3403 9.6ZM79.1803 12.16L78.2233 12.45L78.2273 12.4632L78.2316 12.4762L79.1803 12.16ZM80.0203 14.8L79.0633 15.09L79.0658 15.0983L80.0203 14.8ZM80.7403 17.12L79.7845 17.4141L80.0017 18.12H80.7403V17.12ZM80.9403 17.12V18.12H81.6946L81.9018 17.3947L80.9403 17.12ZM82.8603 10.64L83.8161 10.9341L83.8171 10.9307L82.8603 10.64ZM84.6203 5.36L84.1497 4.47765L83.8176 4.65478L83.6847 5.00694L84.6203 5.36ZM86.1403 4.84L86.3527 5.81718L86.3679 5.81389L86.3828 5.81014L86.1403 4.84ZM91.4603 5.2L91.0248 6.10016L91.0367 6.10592L91.0487 6.11137L91.4603 5.2ZM92.9003 6.84L91.917 7.02209L91.9183 7.02911L91.9197 7.03612L92.9003 6.84ZM93.2203 9.32L92.2248 9.41481L92.2261 9.42795L92.2277 9.44105L93.2203 9.32ZM94.3803 21.92L93.383 21.9939L93.3838 22.0039L93.3847 22.0139L94.3803 21.92ZM94.7003 25.84L93.7025 25.9065L93.7026 25.908L94.7003 25.84ZM94.8603 28.56L95.3673 29.4219L95.8844 29.1178L95.8594 28.5184L94.8603 28.56ZM93.4203 29.12L93.2143 28.1415L93.1832 28.148L93.1527 28.1565L93.4203 29.12ZM87.8603 26.76L88.8589 26.7074L88.8588 26.705L87.8603 26.76ZM87.5403 18.92L86.5403 18.9315L86.5406 18.943L87.5403 18.92ZM87.3803 13.08L88.379 13.0292L88.3308 12.08H87.3803V13.08ZM87.1803 13.08V12.08H86.4044L86.2116 12.8316L87.1803 13.08ZM86.0203 17L86.9722 17.3065L86.9722 17.3065L86.0203 17ZM83.5344 22.2766C83.3091 22.4672 82.9778 22.6534 82.5041 22.8113L83.1365 24.7087C83.7828 24.4933 84.3581 24.1995 84.8263 23.8034L83.5344 22.2766ZM82.533 22.8022C82.1155 22.9274 81.5899 23 80.9403 23V25C81.7307 25 82.4584 24.9126 83.1077 24.7178L82.533 22.8022ZM80.9403 23C80.0554 23 79.3837 22.8883 78.8914 22.7037L78.1892 24.5763C78.9769 24.8717 79.9052 25 80.9403 25V23ZM78.9047 22.7088C78.5497 22.5699 78.3814 22.3738 78.2932 22.0968L76.3874 22.7032C76.6726 23.5995 77.3042 24.2301 78.1759 24.5712L78.9047 22.7088ZM78.2932 22.0968C77.5459 19.7481 76.931 17.8499 76.449 16.4038L74.5516 17.0362C75.0296 18.4701 75.6414 20.3586 76.3874 22.7032L78.2932 22.0968ZM76.4507 16.409C75.976 14.9585 75.6107 13.7042 75.3518 12.643L73.4088 13.117C73.6833 14.2425 74.0646 15.5482 74.5499 17.031L76.4507 16.409ZM74.3803 11.88H74.1803V13.88H74.3803V11.88ZM73.1816 12.8292C73.1015 14.4052 73.0346 15.8486 72.9811 17.1592L74.9795 17.2408C75.0327 15.938 75.0992 14.5014 75.179 12.9308L73.1816 12.8292ZM72.9805 17.1792C72.9539 18.4589 72.9272 19.7119 72.9005 20.9383L74.9001 20.9817C74.9268 19.7548 74.9534 18.5011 74.9801 17.2208L72.9805 17.1792ZM72.9003 20.96C72.9003 22.1722 72.874 23.398 72.8212 24.6375L74.8194 24.7225C74.8733 23.4553 74.9003 22.2012 74.9003 20.96H72.9003ZM72.8205 24.6587C72.7941 25.8997 72.7413 27.2757 72.6617 28.7874L74.6589 28.8926C74.7394 27.3643 74.7932 25.967 74.8201 24.7013L72.8205 24.6587ZM73.3013 27.9067C73.0511 28.0029 72.6788 28.0958 72.1589 28.1701L72.4417 30.1499C73.0418 30.0642 73.5761 29.9438 74.0193 29.7733L73.3013 27.9067ZM72.1132 28.1777C71.6138 28.2728 71.1164 28.32 70.6203 28.32V30.32C71.2442 30.32 71.8669 30.2605 72.4874 30.1423L72.1132 28.1777ZM70.6203 28.32C69.5342 28.32 68.8071 28.1441 68.3489 27.8875L67.3717 29.6325C68.2468 30.1226 69.3597 30.32 70.6203 30.32V28.32ZM68.3642 27.8962C68.1319 27.7607 67.9003 27.4851 67.9003 26.72H65.9003C65.9003 27.9282 66.3088 29.0126 67.3564 29.6238L68.3642 27.8962ZM67.8987 26.7768L69.0587 6.37677L67.0619 6.26323L65.9019 26.6632L67.8987 26.7768ZM68.912 6.8441C68.9824 6.72969 69.2517 6.45987 69.946 6.07416L68.9747 4.32584C68.229 4.74013 67.5649 5.21697 67.2087 5.7959L68.912 6.8441ZM69.946 6.07416C70.4548 5.79148 71.2737 5.6 72.5003 5.6V3.6C71.1136 3.6 69.9058 3.80852 68.9747 4.32584L69.946 6.07416ZM72.5003 5.6C73.8258 5.6 74.7374 5.81576 75.3273 6.15002L76.3133 4.40998C75.3032 3.83757 74.0015 3.6 72.5003 3.6V5.6ZM75.3497 6.16235C75.9016 6.45667 76.3426 6.9546 76.645 7.75389L78.5156 7.04611C78.0714 5.87207 77.3391 4.95666 76.2909 4.39765L75.3497 6.16235ZM76.644 7.75112C76.8773 8.37327 77.1255 9.09141 77.3886 9.907L79.292 9.293C79.0218 8.45525 78.7633 7.70673 78.5166 7.04888L76.644 7.75112ZM77.3979 9.93441C77.6858 10.7457 77.9609 11.5842 78.2233 12.45L80.1373 11.87C79.8664 10.9758 79.5815 10.1076 79.2827 9.26559L77.3979 9.93441ZM78.2316 12.4762C78.5221 13.3476 78.7993 14.2189 79.0633 15.09L80.9773 14.51C80.708 13.6211 80.4252 12.7324 80.129 11.8438L78.2316 12.4762ZM79.0658 15.0983C79.3322 15.9505 79.5717 16.7224 79.7845 17.4141L81.6961 16.8259C81.4822 16.1309 81.2418 15.3561 80.9748 14.5017L79.0658 15.0983ZM80.7403 18.12H80.9403V16.12H80.7403V18.12ZM81.9018 17.3947C82.5401 15.1607 83.1782 13.0072 83.8161 10.9341L81.9045 10.3459C81.2624 12.4328 80.6205 14.5993 79.9788 16.8453L81.9018 17.3947ZM83.8171 10.9307C84.4533 8.83647 85.033 7.09889 85.5559 5.71306L83.6847 5.00694C83.141 6.44777 82.5473 8.23019 81.9035 10.3493L83.8171 10.9307ZM85.0909 6.24235C85.3852 6.0854 85.7976 5.93786 86.3527 5.81718L85.9279 3.86282C85.2564 4.00881 84.6554 4.20793 84.1497 4.47765L85.0909 6.24235ZM86.3828 5.81014C86.9313 5.67303 87.5551 5.6 88.2603 5.6V3.6C87.4189 3.6 86.6293 3.68697 85.8978 3.86986L86.3828 5.81014ZM88.2603 5.6C89.4756 5.6 90.3788 5.78761 91.0248 6.10016L91.8959 4.29984C90.8885 3.81239 89.6584 3.6 88.2603 3.6V5.6ZM91.0487 6.11137C91.6573 6.38621 91.8578 6.70211 91.917 7.02209L93.8836 6.65791C93.6762 5.53789 92.9167 4.76045 91.8719 4.28863L91.0487 6.11137ZM91.9197 7.03612C92.0158 7.51666 92.1187 8.30096 92.2248 9.41481L94.2158 9.22519C94.1086 8.09904 93.9981 7.23001 93.8809 6.64388L91.9197 7.03612ZM92.2277 9.44105C92.3597 10.5241 92.4922 11.7554 92.6249 13.1357L94.6157 12.9443C94.4818 11.5513 94.3475 10.3026 94.213 9.19895L92.2277 9.44105ZM92.6249 13.1357C92.7579 14.5188 92.8909 15.9821 93.024 17.5259L95.0166 17.3541C94.883 15.8045 94.7494 14.3346 94.6157 12.9443L92.6249 13.1357ZM93.024 17.5259C93.157 19.0688 93.2767 20.5582 93.383 21.9939L95.3776 21.8461C95.2706 20.4018 95.1503 18.9045 95.0166 17.3541L93.024 17.5259ZM93.3847 22.0139C93.5174 23.4197 93.6232 24.7171 93.7025 25.9065L95.6981 25.7735C95.6174 24.5629 95.5099 23.247 95.3759 21.8261L93.3847 22.0139ZM93.7026 25.908C93.7824 27.0785 93.8351 27.9749 93.8612 28.6016L95.8594 28.5184C95.8322 27.8651 95.7782 26.9482 95.698 25.772L93.7026 25.908ZM94.3533 27.6981C93.9918 27.9107 93.6133 28.0575 93.2143 28.1415L93.6263 30.0985C94.2407 29.9692 94.8221 29.7426 95.3673 29.4219L94.3533 27.6981ZM93.1527 28.1565C92.7939 28.2561 92.2672 28.32 91.5403 28.32V30.32C92.3601 30.32 93.0867 30.2505 93.688 30.0835L93.1527 28.1565ZM91.5403 28.32C90.6363 28.32 89.9461 28.1648 89.4275 27.9056L88.5331 29.6944C89.4012 30.1285 90.4176 30.32 91.5403 30.32V28.32ZM89.4275 27.9056C89.1562 27.7699 88.9001 27.4891 88.8589 26.7074L86.8617 26.8126C86.9272 28.0576 87.4178 29.1368 88.5331 29.6944L89.4275 27.9056ZM88.8588 26.705C88.6992 23.8065 88.5931 21.2041 88.54 18.897L86.5406 18.943C86.5942 21.2759 86.7014 23.9002 86.8618 26.815L88.8588 26.705ZM88.5402 18.9085C88.5135 16.5809 88.4599 14.6202 88.379 13.0292L86.3816 13.1308C86.4607 14.6865 86.5138 16.6191 86.5404 18.9315L88.5402 18.9085ZM87.3803 12.08H87.1803V14.08H87.3803V12.08ZM86.2116 12.8316C85.9519 13.8446 85.5718 15.1303 85.0685 16.6935L86.9722 17.3065C87.4821 15.723 87.8754 14.3954 88.149 13.3284L86.2116 12.8316ZM85.0685 16.6935C84.5581 18.2783 83.9421 20.3007 83.2208 22.7584L85.1398 23.3216C85.8586 20.8726 86.4692 18.8684 86.9722 17.3065L85.0685 16.6935ZM117.979 23.72L118.909 24.0881L118.911 24.0815L117.979 23.72ZM115.819 26.96L115.133 26.2324L115.128 26.2374L115.123 26.2424L115.819 26.96ZM112.539 28.96L112.205 28.0174L112.205 28.0174L112.539 28.96ZM103.979 28.92L103.628 29.8563L103.628 29.8563L103.979 28.92ZM100.659 26.88L99.952 27.5871L99.9624 27.5975L99.973 27.6076L100.659 26.88ZM98.5391 23.6L97.6093 23.968L97.6093 23.968L98.5391 23.6ZM98.5391 15L97.6093 14.632L97.6093 14.632L98.5391 15ZM100.659 11.76L101.356 12.4776L101.356 12.4773L100.659 11.76ZM103.979 9.68L104.33 10.6163L104.33 10.6163L103.979 9.68ZM112.539 9.72L112.171 10.6498L112.179 10.6531L112.188 10.6563L112.539 9.72ZM115.819 11.8L115.112 12.5071L115.122 12.5175L115.133 12.5276L115.819 11.8ZM117.979 15.04L117.049 15.408L117.049 15.408L117.979 15.04ZM105.659 23.04L104.839 23.6118L104.849 23.6261L104.859 23.64L105.659 23.04ZM110.859 23L110.039 22.4282L110.033 22.4367L110.027 22.4453L110.859 23ZM110.859 15.6L110.039 16.1718L110.043 16.1777L110.047 16.1836L110.859 15.6ZM105.659 15.6L106.471 16.1836L106.475 16.1777L106.479 16.1718L105.659 15.6ZM117.739 19.28C117.739 20.8315 117.501 22.1858 117.047 23.3585L118.911 24.0815C119.47 22.6409 119.739 21.0352 119.739 19.28H117.739ZM117.049 23.352C116.593 24.5058 115.952 25.4602 115.133 26.2324L116.505 27.6876C117.553 26.6998 118.352 25.4942 118.909 24.088L117.049 23.352ZM115.123 26.2424C114.327 27.0148 113.36 27.6084 112.205 28.0174L112.873 29.9026C114.278 29.4049 115.498 28.6652 116.516 27.6776L115.123 26.2424ZM112.205 28.0174C111.048 28.4272 109.736 28.64 108.259 28.64V30.64C109.928 30.64 111.47 30.3994 112.873 29.9026L112.205 28.0174ZM108.259 28.64C106.788 28.64 105.482 28.4157 104.33 27.9837L103.628 29.8563C105.036 30.3843 106.584 30.64 108.259 30.64V28.64ZM104.33 27.9837C103.166 27.5472 102.176 26.9354 101.345 26.1524L99.973 27.6076C101.009 28.5846 102.232 29.3328 103.628 29.8563L104.33 27.9837ZM101.366 26.1729C100.563 25.3698 99.929 24.3944 99.4689 23.232L97.6093 23.968C98.1625 25.3656 98.9417 26.5769 99.952 27.5871L101.366 26.1729ZM99.4689 23.232C99.0155 22.0865 98.7791 20.7741 98.7791 19.28H96.7791C96.7791 20.9859 97.0493 22.5535 97.6093 23.968L99.4689 23.232ZM98.7791 19.28C98.7791 17.8148 99.0147 16.5154 99.4689 15.368L97.6093 14.632C97.0501 16.0446 96.7791 17.5985 96.7791 19.28H98.7791ZM99.4689 15.368C99.9281 14.2078 100.559 13.2504 101.356 12.4776L99.9626 11.0424C98.9454 12.0296 98.1633 13.2322 97.6093 14.632L99.4689 15.368ZM101.356 12.4773C102.185 11.6715 103.173 11.0504 104.33 10.6163L103.628 8.74367C102.226 9.26958 100.999 10.0352 99.9623 11.0427L101.356 12.4773ZM104.33 10.6163C105.482 10.1843 106.788 9.96 108.259 9.96V7.96C106.584 7.96 105.036 8.21573 103.628 8.74367L104.33 10.6163ZM108.259 9.96C109.724 9.96 111.024 10.1957 112.171 10.6498L112.907 8.79019C111.494 8.23101 109.941 7.96 108.259 7.96V9.96ZM112.188 10.6563C113.343 11.0896 114.313 11.708 115.112 12.5071L116.526 11.0929C115.512 10.0787 114.295 9.31042 112.89 8.78367L112.188 10.6563ZM115.133 12.5276C115.952 13.2998 116.593 14.2542 117.049 15.408L118.909 14.672C118.352 13.2658 117.553 12.0602 116.505 11.0724L115.133 12.5276ZM117.049 15.408C117.504 16.5573 117.739 17.8438 117.739 19.28H119.739C119.739 17.6228 119.467 16.0827 118.909 14.672L117.049 15.408ZM103.739 19.28C103.739 21.012 104.062 22.4978 104.839 23.6118L106.479 22.4682C106.029 21.8222 105.739 20.8013 105.739 19.28H103.739ZM104.859 23.64C105.699 24.7595 106.883 25.32 108.299 25.32V23.32C107.475 23.32 106.899 23.0272 106.459 22.44L104.859 23.64ZM108.299 25.32C109.73 25.32 110.906 24.7319 111.691 23.5547L110.027 22.4453C109.638 23.0281 109.108 23.32 108.299 23.32V25.32ZM111.679 23.5718C112.454 22.4601 112.779 20.9895 112.779 19.28H110.779C110.779 20.7705 110.491 21.7799 110.039 22.4282L111.679 23.5718ZM112.779 19.28C112.779 17.5735 112.455 16.1076 111.671 15.0164L110.047 16.1836C110.489 16.799 110.779 17.7865 110.779 19.28H112.779ZM111.679 15.0282C110.87 13.8662 109.689 13.28 108.259 13.28V15.28C109.069 15.28 109.622 15.5738 110.039 16.1718L111.679 15.0282ZM108.259 13.28C106.829 13.28 105.649 13.8662 104.839 15.0282L106.479 16.1718C106.896 15.5738 107.449 15.28 108.259 15.28V13.28ZM104.847 15.0164C104.063 16.1076 103.739 17.5735 103.739 19.28H105.739C105.739 17.7865 106.029 16.799 106.471 16.1836L104.847 15.0164ZM133.657 14.88L132.995 15.6298L133.018 15.6503L133.043 15.6694L133.657 14.88ZM130.177 14.48L129.934 13.5098L129.922 13.5129L130.177 14.48ZM128.857 15.08L128.275 14.2663L127.857 14.5654V15.08H128.857ZM128.857 28.96L129.144 29.9178L129.857 29.704V28.96H128.857ZM127.577 29.2L127.441 28.2091L127.435 28.2101L127.577 29.2ZM124.217 29.2L124.043 30.1848L124.052 30.1864L124.217 29.2ZM123.057 28.72L123.657 27.92L123.657 27.92L123.057 28.72ZM122.297 27.76L121.36 28.1111L121.374 28.1476L121.39 28.1829L122.297 27.76ZM122.497 12.36L121.68 11.7833L121.668 11.7998L121.657 11.8167L122.497 12.36ZM123.777 11.12L124.35 11.9392L124.353 11.937L123.777 11.12ZM127.177 9.56L126.899 8.59916L126.894 8.60063L127.177 9.56ZM138.737 10.96L138.103 11.7334L138.11 11.7396L138.737 10.96ZM141.177 28.96L141.464 29.9178L142.177 29.704V28.96H141.177ZM139.897 29.2L139.761 28.2091L139.755 28.2101L139.897 29.2ZM136.537 29.2L136.363 30.1848L136.372 30.1864L136.537 29.2ZM135.377 28.72L134.777 29.52L135.377 28.72ZM134.617 27.76L133.68 28.1111L133.694 28.1476L133.71 28.1829L134.617 27.76ZM135.377 16.68C135.377 15.6634 135.075 14.716 134.271 14.0906L133.043 15.6694C133.199 15.7907 133.377 16.0433 133.377 16.68H135.377ZM134.318 14.1302C133.63 13.5229 132.74 13.28 131.777 13.28V15.28C132.413 15.28 132.777 15.4371 132.995 15.6298L134.318 14.1302ZM131.777 13.28C131.159 13.28 130.544 13.3573 129.934 13.5099L130.419 15.4501C130.876 15.336 131.327 15.28 131.777 15.28V13.28ZM129.922 13.5129C129.315 13.6728 128.76 13.9198 128.275 14.2663L129.438 15.8937C129.699 15.7068 130.025 15.5539 130.431 15.4471L129.922 13.5129ZM127.857 15.08V28.96H129.857V15.08H127.857ZM128.569 28.0022C128.382 28.0584 128.021 28.1302 127.441 28.2092L127.712 30.1908C128.306 30.1098 128.798 30.0216 129.144 29.9178L128.569 28.0022ZM127.435 28.2101C126.926 28.2828 126.386 28.32 125.817 28.32V30.32C126.473 30.32 127.107 30.2772 127.718 30.1899L127.435 28.2101ZM125.817 28.32C125.274 28.32 124.797 28.2829 124.381 28.2136L124.052 30.1864C124.596 30.2771 125.186 30.32 125.817 30.32V28.32ZM124.39 28.2152C124.068 28.1584 123.833 28.0525 123.657 27.92L122.457 29.52C122.92 29.8675 123.458 30.0816 124.043 30.1848L124.39 28.2152ZM123.657 27.92C123.481 27.7885 123.327 27.6039 123.203 27.3371L121.39 28.1829C121.639 28.7161 121.992 29.1715 122.457 29.52L123.657 27.92ZM123.233 27.4089C123.13 27.1337 123.057 26.7173 123.057 26.12H121.057C121.057 26.8561 121.143 27.533 121.36 28.1111L123.233 27.4089ZM123.057 26.12V14.12H121.057V26.12H123.057ZM123.057 14.12C123.057 13.53 123.177 13.1491 123.336 12.9033L121.657 11.8167C121.229 12.4776 121.057 13.27 121.057 14.12H123.057ZM123.314 12.9367C123.557 12.5924 123.895 12.2576 124.35 11.9392L123.203 10.3008C122.591 10.7291 122.077 11.2209 121.68 11.7833L123.314 12.9367ZM124.353 11.937C125.149 11.3751 126.176 10.8966 127.459 10.5194L126.894 8.60063C125.457 9.02344 124.217 9.58494 123.2 10.303L124.353 11.937ZM127.454 10.5208C128.737 10.1507 130.175 9.96 131.777 9.96V7.96C130.018 7.96 128.39 8.16934 126.899 8.59918L127.454 10.5208ZM131.777 9.96C134.657 9.96 136.718 10.5985 138.103 11.7334L139.37 10.1866C137.502 8.65485 134.923 7.96 131.777 7.96V9.96ZM138.11 11.7396C139.469 12.8312 140.177 14.3536 140.177 16.44H142.177C142.177 13.8331 141.257 11.7021 139.363 10.1804L138.11 11.7396ZM140.177 16.44V28.96H142.177V16.44H140.177ZM140.889 28.0022C140.702 28.0584 140.341 28.1302 139.761 28.2092L140.032 30.1908C140.626 30.1098 141.118 30.0216 141.464 29.9178L140.889 28.0022ZM139.755 28.2101C139.246 28.2828 138.706 28.32 138.137 28.32V30.32C138.793 30.32 139.427 30.2772 140.038 30.1899L139.755 28.2101ZM138.137 28.32C137.594 28.32 137.117 28.2829 136.701 28.2136L136.372 30.1864C136.916 30.2771 137.506 30.32 138.137 30.32V28.32ZM136.71 28.2152C136.388 28.1584 136.153 28.0525 135.977 27.92L134.777 29.52C135.24 29.8675 135.778 30.0816 136.363 30.1848L136.71 28.2152ZM135.977 27.92C135.801 27.7885 135.647 27.6039 135.523 27.3371L133.71 28.1829C133.959 28.7161 134.312 29.1715 134.777 29.52L135.977 27.92ZM135.553 27.4089C135.45 27.1337 135.377 26.7173 135.377 26.12H133.377C133.377 26.8561 133.463 27.533 133.68 28.1111L135.553 27.4089ZM135.377 26.12V16.68H133.377V26.12H135.377ZM152.177 28.96L152.464 29.9178L153.177 29.704V28.96H152.177ZM150.897 29.2L150.762 28.2091L150.755 28.2101L150.897 29.2ZM147.537 29.2L147.363 30.1848L147.372 30.1864L147.537 29.2ZM146.377 28.72L146.977 27.92L146.977 27.92L146.377 28.72ZM145.617 27.76L144.681 28.1111L144.694 28.1476L144.711 28.1829L145.617 27.76ZM145.697 12.56L144.813 12.0921L144.808 12.1024L144.802 12.1128L145.697 12.56ZM146.697 11.36L147.327 12.1361L147.327 12.1361L146.697 11.36ZM148.257 10.44L148.656 11.3571L148.665 11.3532L148.674 11.3491L148.257 10.44ZM150.297 9.68L150.581 10.6388L150.581 10.6388L150.297 9.68ZM152.537 9.2L152.674 10.1906L152.69 10.1883L152.707 10.1855L152.537 9.2ZM157.897 9.76L157.335 10.5875L157.346 10.5945L157.356 10.6012L157.897 9.76ZM158.857 13.28L159.813 13.5741L159.816 13.5644L159.818 13.5547L158.857 13.28ZM158.457 14.24V15.24H159.051L159.335 14.7189L158.457 14.24ZM156.737 14.32L156.827 15.3159L156.827 15.3159L156.737 14.32ZM155.017 14.56L154.83 13.5777L154.83 13.5777L155.017 14.56ZM153.417 14.92L153.634 15.8962L153.653 15.892L153.671 15.8871L153.417 14.92ZM152.177 15.32L151.758 14.412L151.177 14.6802V15.32H152.177ZM151.89 28.0022C151.702 28.0584 151.341 28.1302 150.762 28.2092L151.032 30.1908C151.626 30.1098 152.118 30.0216 152.464 29.9178L151.89 28.0022ZM150.755 28.2101C150.246 28.2828 149.707 28.32 149.137 28.32V30.32C149.794 30.32 150.428 30.2772 151.038 30.1899L150.755 28.2101ZM149.137 28.32C148.594 28.32 148.117 28.2829 147.701 28.2136L147.372 30.1864C147.917 30.2771 148.506 30.32 149.137 30.32V28.32ZM147.711 28.2152C147.389 28.1584 147.154 28.0525 146.977 27.92L145.777 29.52C146.24 29.8675 146.779 30.0816 147.363 30.1848L147.711 28.2152ZM146.977 27.92C146.802 27.7885 146.648 27.6039 146.523 27.3371L144.711 28.1829C144.96 28.7161 145.312 29.1715 145.777 29.52L146.977 27.92ZM146.553 27.4089C146.45 27.1337 146.377 26.7173 146.377 26.12H144.377C144.377 26.8561 144.464 27.533 144.681 28.1111L146.553 27.4089ZM146.377 26.12V14.12H144.377V26.12H146.377ZM146.377 14.12C146.377 13.619 146.464 13.2611 146.591 13.0072L144.802 12.1128C144.503 12.7122 144.377 13.3944 144.377 14.12H146.377ZM146.581 13.0279C146.753 12.7016 146.997 12.4042 147.327 12.1361L146.066 10.5839C145.543 11.0091 145.12 11.5117 144.813 12.0921L146.581 13.0279ZM147.327 12.1361C147.67 11.8575 148.108 11.595 148.656 11.3571L147.858 9.52293C147.179 9.8183 146.577 10.1691 146.066 10.5839L147.327 12.1361ZM148.674 11.3491C149.268 11.0767 149.903 10.8396 150.581 10.6388L150.013 8.7212C149.25 8.94708 148.526 9.21666 147.84 9.53093L148.674 11.3491ZM150.581 10.6388C151.251 10.4403 151.948 10.2907 152.674 10.1906L152.4 8.20938C151.579 8.32265 150.783 8.49301 150.013 8.7212L150.581 10.6388ZM152.707 10.1855C153.425 10.0617 154.141 10 154.857 10V8C154.026 8 153.196 8.07167 152.367 8.21454L152.707 10.1855ZM154.857 10C156.017 10 156.81 10.2312 157.335 10.5875L158.458 8.93252C157.49 8.27544 156.257 8 154.857 8V10ZM157.356 10.6012C157.741 10.8484 158.017 11.2789 158.017 12.16H160.017C160.017 10.8011 159.546 9.63163 158.438 8.91882L157.356 10.6012ZM158.017 12.16C158.017 12.4368 157.978 12.7177 157.895 13.0053L159.818 13.5547C159.95 13.0956 160.017 12.6299 160.017 12.16H158.017ZM157.901 12.9859C157.812 13.2739 157.704 13.5314 157.579 13.7611L159.335 14.7189C159.529 14.3619 159.688 13.9794 159.813 13.5741L157.901 12.9859ZM158.457 13.24C157.865 13.24 157.262 13.2682 156.646 13.3241L156.827 15.3159C157.386 15.2652 157.929 15.24 158.457 15.24V13.24ZM156.646 13.3241C156.028 13.3803 155.423 13.4647 154.83 13.5777L155.204 15.5423C155.731 15.442 156.272 15.3664 156.827 15.3159L156.646 13.3241ZM154.83 13.5777C154.249 13.6883 153.693 13.8132 153.162 13.9529L153.671 15.8871C154.154 15.7601 154.665 15.6451 155.204 15.5423L154.83 13.5777ZM153.2 13.9438C152.669 14.0618 152.185 14.215 151.758 14.412L152.596 16.228C152.862 16.105 153.205 15.9916 153.634 15.8962L153.2 13.9438ZM151.177 15.32V28.96H153.177V15.32H151.177ZM168.232 28.96L168.519 29.9178L169.232 29.704V28.96H168.232ZM166.952 29.2L166.816 28.2091L166.81 28.2101L166.952 29.2ZM163.592 29.2L163.418 30.1848L163.427 30.1864L163.592 29.2ZM162.432 28.72L163.032 27.92L163.032 27.92L162.432 28.72ZM161.672 27.76L160.735 28.1111L160.749 28.1476L160.765 28.1829L161.672 27.76ZM161.752 12.56L160.868 12.0921L160.862 12.1024L160.857 12.1128L161.752 12.56ZM162.752 11.36L163.382 12.1361L163.382 12.1361L162.752 11.36ZM164.312 10.44L164.71 11.3571L164.719 11.3532L164.728 11.3491L164.312 10.44ZM166.352 9.68L166.636 10.6388L166.636 10.6388L166.352 9.68ZM168.592 9.2L168.728 10.1906L168.745 10.1883L168.761 10.1855L168.592 9.2ZM173.952 9.76L173.39 10.5875L173.4 10.5945L173.411 10.6012L173.952 9.76ZM174.912 13.28L175.867 13.5741L175.87 13.5644L175.873 13.5547L174.912 13.28ZM174.512 14.24V15.24H175.105L175.389 14.7189L174.512 14.24ZM172.792 14.32L172.882 15.3159L172.882 15.3159L172.792 14.32ZM171.072 14.56L170.884 13.5777L170.884 13.5777L171.072 14.56ZM169.472 14.92L169.688 15.8962L169.707 15.892L169.726 15.8871L169.472 14.92ZM168.232 15.32L167.813 14.412L167.232 14.6802V15.32H168.232ZM167.944 28.0022C167.757 28.0584 167.396 28.1302 166.816 28.2092L167.087 30.1908C167.681 30.1098 168.173 30.0216 168.519 29.9178L167.944 28.0022ZM166.81 28.2101C166.301 28.2828 165.761 28.32 165.192 28.32V30.32C165.848 30.32 166.482 30.2772 167.093 30.1899L166.81 28.2101ZM165.192 28.32C164.649 28.32 164.172 28.2829 163.756 28.2136L163.427 30.1864C163.971 30.2771 164.561 30.32 165.192 30.32V28.32ZM163.765 28.2152C163.443 28.1584 163.208 28.0525 163.032 27.92L161.832 29.52C162.295 29.8675 162.833 30.0816 163.418 30.1848L163.765 28.2152ZM163.032 27.92C162.856 27.7885 162.702 27.6039 162.578 27.3371L160.765 28.1829C161.014 28.7161 161.367 29.1715 161.832 29.52L163.032 27.92ZM162.608 27.4089C162.505 27.1337 162.432 26.7173 162.432 26.12H160.432C160.432 26.8561 160.518 27.533 160.735 28.1111L162.608 27.4089ZM162.432 26.12V14.12H160.432V26.12H162.432ZM162.432 14.12C162.432 13.619 162.519 13.2611 162.646 13.0072L160.857 12.1128C160.557 12.7122 160.432 13.3944 160.432 14.12H162.432ZM162.635 13.0279C162.808 12.7016 163.052 12.4042 163.382 12.1361L162.121 10.5839C161.598 11.0091 161.175 11.5117 160.868 12.0921L162.635 13.0279ZM163.382 12.1361C163.725 11.8575 164.163 11.595 164.71 11.3571L163.913 9.52293C163.233 9.8183 162.631 10.1691 162.121 10.5839L163.382 12.1361ZM164.728 11.3491C165.323 11.0767 165.958 10.8396 166.636 10.6388L166.067 8.7212C165.305 8.94708 164.581 9.21666 163.895 9.53093L164.728 11.3491ZM166.636 10.6388C167.306 10.4403 168.003 10.2907 168.728 10.1906L168.455 8.20938C167.634 8.32265 166.838 8.49301 166.067 8.7212L166.636 10.6388ZM168.761 10.1855C169.48 10.0617 170.196 10 170.912 10V8C170.08 8 169.25 8.07167 168.422 8.21454L168.761 10.1855ZM170.912 10C172.072 10 172.865 10.2312 173.39 10.5875L174.513 8.93252C173.545 8.27544 172.311 8 170.912 8V10ZM173.411 10.6012C173.795 10.8484 174.072 11.2789 174.072 12.16H176.072C176.072 10.8011 175.601 9.63163 174.492 8.91882L173.411 10.6012ZM174.072 12.16C174.072 12.4368 174.032 12.7177 173.95 13.0053L175.873 13.5547C176.004 13.0956 176.072 12.6299 176.072 12.16H174.072ZM173.956 12.9859C173.867 13.2739 173.759 13.5314 173.634 13.7611L175.389 14.7189C175.584 14.3619 175.743 13.9794 175.867 13.5741L173.956 12.9859ZM174.512 13.24C173.92 13.24 173.316 13.2682 172.701 13.3241L172.882 15.3159C173.44 15.2652 173.983 15.24 174.512 15.24V13.24ZM172.701 13.3241C172.083 13.3803 171.477 13.4647 170.884 13.5777L171.259 15.5423C171.786 15.442 172.327 15.3664 172.882 15.3159L172.701 13.3241ZM170.884 13.5777C170.304 13.6883 169.748 13.8132 169.217 13.9529L169.726 15.8871C170.209 15.7601 170.719 15.6451 171.259 15.5423L170.884 13.5777ZM169.255 13.9438C168.724 14.0618 168.239 14.215 167.813 14.412L168.651 16.228C168.917 16.105 169.259 15.9916 169.688 15.8962L169.255 13.9438ZM167.232 15.32V28.96H169.232V15.32H167.232ZM196.495 23.72L197.425 24.0881L197.427 24.0815L196.495 23.72ZM194.335 26.96L193.649 26.2324L193.643 26.2374L193.638 26.2424L194.335 26.96ZM191.055 28.96L190.721 28.0174L190.721 28.0174L191.055 28.96ZM182.495 28.92L182.144 29.8563L182.144 29.8563L182.495 28.92ZM179.175 26.88L178.468 27.5871L178.478 27.5975L178.489 27.6076L179.175 26.88ZM177.055 23.6L176.125 23.968L176.125 23.968L177.055 23.6ZM177.055 15L176.125 14.632L176.125 14.632L177.055 15ZM179.175 11.76L179.871 12.4776L179.871 12.4773L179.175 11.76ZM182.495 9.68L182.846 10.6163L182.846 10.6163L182.495 9.68ZM191.055 9.72L190.687 10.6498L190.695 10.6531L190.704 10.6563L191.055 9.72ZM194.335 11.8L193.628 12.5071L193.638 12.5175L193.649 12.5276L194.335 11.8ZM196.495 15.04L195.565 15.408L195.565 15.408L196.495 15.04ZM184.175 23.04L183.354 23.6118L183.364 23.6261L183.375 23.64L184.175 23.04ZM189.375 23L188.554 22.4282L188.548 22.4367L188.543 22.4453L189.375 23ZM189.375 15.6L188.554 16.1718L188.558 16.1777L188.563 16.1836L189.375 15.6ZM184.175 15.6L184.987 16.1836L184.991 16.1777L184.995 16.1718L184.175 15.6ZM196.255 19.28C196.255 20.8315 196.017 22.1858 195.562 23.3585L197.427 24.0815C197.986 22.6409 198.255 21.0352 198.255 19.28H196.255ZM195.565 23.352C195.108 24.5058 194.468 25.4602 193.649 26.2324L195.021 27.6876C196.068 26.6998 196.868 25.4942 197.424 24.088L195.565 23.352ZM193.638 26.2424C192.842 27.0148 191.875 27.6084 190.721 28.0174L191.389 29.9026C192.794 29.4049 194.014 28.6652 195.031 27.6776L193.638 26.2424ZM190.721 28.0174C189.564 28.4272 188.252 28.64 186.775 28.64V30.64C188.444 30.64 189.986 30.3994 191.389 29.9026L190.721 28.0174ZM186.775 28.64C185.303 28.64 183.998 28.4157 182.846 27.9837L182.144 29.8563C183.551 30.3843 185.099 30.64 186.775 30.64V28.64ZM182.846 27.9837C181.682 27.5472 180.691 26.9354 179.861 26.1524L178.489 27.6076C179.525 28.5846 180.747 29.3328 182.144 29.8563L182.846 27.9837ZM179.882 26.1729C179.079 25.3698 178.445 24.3944 177.984 23.232L176.125 23.968C176.678 25.3656 177.457 26.5769 178.468 27.5871L179.882 26.1729ZM177.984 23.232C177.531 22.0865 177.295 20.7741 177.295 19.28H175.295C175.295 20.9859 175.565 22.5535 176.125 23.968L177.984 23.232ZM177.295 19.28C177.295 17.8148 177.53 16.5154 177.984 15.368L176.125 14.632C175.566 16.0446 175.295 17.5985 175.295 19.28H177.295ZM177.984 15.368C178.444 14.2078 179.075 13.2504 179.871 12.4776L178.478 11.0424C177.461 12.0296 176.679 13.2322 176.125 14.632L177.984 15.368ZM179.871 12.4773C180.701 11.6715 181.688 11.0504 182.846 10.6163L182.144 8.74367C180.741 9.26958 179.515 10.0352 178.478 11.0427L179.871 12.4773ZM182.846 10.6163C183.998 10.1843 185.303 9.96 186.775 9.96V7.96C185.099 7.96 183.551 8.21573 182.144 8.74367L182.846 10.6163ZM186.775 9.96C188.24 9.96 189.539 10.1957 190.687 10.6498L191.423 8.79019C190.01 8.23101 188.456 7.96 186.775 7.96V9.96ZM190.704 10.6563C191.859 11.0896 192.828 11.708 193.628 12.5071L195.042 11.0929C194.028 10.0787 192.81 9.31042 191.406 8.78367L190.704 10.6563ZM193.649 12.5276C194.468 13.2998 195.108 14.2542 195.565 15.408L197.424 14.672C196.868 13.2658 196.068 12.0602 195.021 11.0724L193.649 12.5276ZM195.565 15.408C196.02 16.5573 196.255 17.8438 196.255 19.28H198.255C198.255 17.6228 197.983 16.0827 197.424 14.672L195.565 15.408ZM182.255 19.28C182.255 21.012 182.578 22.4978 183.354 23.6118L184.995 22.4682C184.545 21.8222 184.255 20.8013 184.255 19.28H182.255ZM183.375 23.64C184.214 24.7595 185.398 25.32 186.815 25.32V23.32C185.991 23.32 185.415 23.0272 184.975 22.44L183.375 23.64ZM186.815 25.32C188.246 25.32 189.422 24.7319 190.207 23.5547L188.543 22.4453C188.154 23.0281 187.624 23.32 186.815 23.32V25.32ZM190.195 23.5718C190.97 22.4601 191.295 20.9895 191.295 19.28H189.295C189.295 20.7705 189.006 21.7799 188.554 22.4282L190.195 23.5718ZM191.295 19.28C191.295 17.5735 190.971 16.1076 190.187 15.0164L188.563 16.1836C189.005 16.799 189.295 17.7865 189.295 19.28H191.295ZM190.195 15.0282C189.385 13.8662 188.205 13.28 186.775 13.28V15.28C187.585 15.28 188.138 15.5738 188.554 16.1718L190.195 15.0282ZM186.775 13.28C185.345 13.28 184.164 13.8662 183.354 15.0282L184.995 16.1718C185.412 15.5738 185.965 15.28 186.775 15.28V13.28ZM183.363 15.0164C182.578 16.1076 182.255 17.5735 182.255 19.28H184.255C184.255 17.7865 184.544 16.799 184.987 16.1836L183.363 15.0164ZM206.452 29L206.13 29.9468L206.142 29.9506L206.153 29.9541L206.452 29ZM202.932 27L202.267 27.7464L202.277 27.755L202.932 27ZM200.572 23.68L199.65 24.0672L199.653 24.075L199.657 24.0827L200.572 23.68ZM200.572 14.48L199.663 14.0633L199.659 14.0721L200.572 14.48ZM202.852 11.36L203.503 12.1193L203.509 12.114L203.515 12.1086L202.852 11.36ZM206.052 9.56L206.349 10.5149L206.359 10.5119L206.368 10.5087L206.052 9.56ZM213.572 9.6L213.223 10.5372L213.23 10.5398L213.572 9.6ZM216.572 11.36L215.902 12.1021L215.908 12.1074L215.914 12.1126L216.572 11.36ZM218.532 14.04L217.615 14.4396L217.62 14.4494L217.624 14.4591L218.532 14.04ZM218.492 19.52L217.804 18.794L217.804 18.794L218.492 19.52ZM216.372 20.44L216.227 19.4506L216.224 19.451L216.372 20.44ZM206.492 21.92L206.344 20.931L205.167 21.1073L205.544 22.2362L206.492 21.92ZM208.292 23.92L207.845 24.8144L207.856 24.8198L207.866 24.8248L208.292 23.92ZM214.492 24.16L214.76 25.1235L214.769 25.1211L214.777 25.1185L214.492 24.16ZM216.892 23.16L217.422 22.312L216.899 21.9851L216.372 22.3058L216.892 23.16ZM217.972 24.28L218.825 23.7585L218.825 23.7585L217.972 24.28ZM216.732 28.48L216.268 27.5942L216.263 27.5969L216.732 28.48ZM213.852 29.4L213.704 28.4111L213.704 28.4111L213.852 29.4ZM208.052 14.24L207.646 13.3262L207.636 13.3306L207.626 13.3352L208.052 14.24ZM206.932 15.08L207.669 15.7557L207.683 15.7411L207.696 15.7259L206.932 15.08ZM206.252 16.2L205.316 15.8489L205.309 15.8662L205.304 15.8838L206.252 16.2ZM206.012 17.44L205.014 17.3776L204.936 18.6296L206.174 18.4269L206.012 17.44ZM212.852 16.32L213.014 17.3069L213.987 17.1474L213.841 16.1717L212.852 16.32ZM211.972 14.72L212.697 14.0312L212.697 14.0312L211.972 14.72ZM210.852 28.64C209.37 28.64 208.005 28.4392 206.752 28.0459L206.153 29.9541C207.619 30.4142 209.188 30.64 210.852 30.64V28.64ZM206.774 28.0532C205.557 27.6395 204.499 27.0359 203.588 26.245L202.277 27.755C203.392 28.7241 204.68 29.4538 206.13 29.9468L206.774 28.0532ZM203.598 26.2537C202.728 25.4784 202.022 24.493 201.488 23.2773L199.657 24.0827C200.295 25.5337 201.163 26.7616 202.267 27.7463L203.598 26.2537ZM201.494 23.2928C200.996 22.1072 200.732 20.6841 200.732 19H198.732C198.732 20.8893 199.028 22.5861 199.65 24.0672L201.494 23.2928ZM200.732 19C200.732 17.3424 200.996 15.9821 201.485 14.8879L199.659 14.0721C199.028 15.4845 198.732 17.1376 198.732 19H200.732ZM201.481 14.8967C202.016 13.7291 202.694 12.8123 203.503 12.1193L202.201 10.6007C201.143 11.5077 200.301 12.6709 199.663 14.0633L201.481 14.8967ZM203.515 12.1086C204.342 11.3766 205.283 10.8465 206.349 10.5149L205.755 8.60514C204.421 9.0202 203.229 9.69008 202.189 10.6114L203.515 12.1086ZM206.368 10.5087C207.467 10.1424 208.587 9.96 209.732 9.96V7.96C208.37 7.96 207.037 8.17765 205.736 8.61132L206.368 10.5087ZM209.732 9.96C211.045 9.96 212.204 10.158 213.223 10.5372L213.921 8.66278C212.647 8.18869 211.246 7.96 209.732 7.96V9.96ZM213.23 10.5398C214.297 10.9277 215.182 11.4517 215.902 12.1021L217.242 10.6179C216.309 9.77492 215.194 9.12565 213.914 8.66021L213.23 10.5398ZM215.914 12.1126C216.656 12.762 217.221 13.5348 217.615 14.4396L219.449 13.6404C218.937 12.4652 218.195 11.4513 217.231 10.6074L215.914 12.1126ZM217.624 14.4591C218.039 15.3585 218.252 16.3476 218.252 17.44H220.252C220.252 16.0791 219.985 14.8015 219.44 13.6209L217.624 14.4591ZM218.252 17.44C218.252 18.1584 218.057 18.555 217.804 18.794L219.18 20.246C219.941 19.525 220.252 18.5349 220.252 17.44H218.252ZM217.804 18.794C217.488 19.0942 216.993 19.338 216.227 19.4506L216.518 21.4294C217.565 21.2754 218.483 20.9058 219.18 20.246L217.804 18.794ZM216.224 19.451L206.344 20.931L206.64 22.909L216.52 21.429L216.224 19.451ZM205.544 22.2362C205.929 23.3924 206.725 24.2546 207.845 24.8144L208.739 23.0256C208.046 22.6787 207.642 22.2076 207.441 21.6038L205.544 22.2362ZM207.866 24.8248C208.927 25.324 210.117 25.56 211.412 25.56V23.56C210.361 23.56 209.471 23.3693 208.718 23.0152L207.866 24.8248ZM211.412 25.56C212.587 25.56 213.705 25.4166 214.76 25.1235L214.225 23.1965C213.36 23.4367 212.424 23.56 211.412 23.56V25.56ZM214.777 25.1185C215.814 24.8103 216.701 24.447 217.412 24.0142L216.372 22.3058C215.857 22.6197 215.144 22.923 214.207 23.2015L214.777 25.1185ZM216.362 24.008C216.642 24.1831 216.897 24.4381 217.119 24.8014L218.825 23.7585C218.461 23.1619 217.995 22.6702 217.422 22.312L216.362 24.008ZM217.119 24.8014C217.322 25.1334 217.412 25.4609 217.412 25.8H219.412C219.412 25.0724 219.209 24.3866 218.825 23.7585L217.119 24.8014ZM217.412 25.8C217.412 26.2387 217.312 26.5725 217.145 26.8389C216.976 27.1081 216.703 27.3666 216.268 27.5942L217.196 29.3658C217.882 29.0067 218.448 28.5253 218.839 27.9011C219.233 27.2742 219.412 26.5613 219.412 25.8H217.412ZM216.263 27.5969C215.521 27.9912 214.671 28.2659 213.704 28.4111L214.001 30.3889C215.166 30.2141 216.237 29.8755 217.201 29.3631L216.263 27.5969ZM213.704 28.4111C212.679 28.5648 211.729 28.64 210.852 28.64V30.64C211.842 30.64 212.892 30.5552 214.001 30.3889L213.704 28.4111ZM209.732 12.92C208.982 12.92 208.279 13.045 207.646 13.3262L208.458 15.1538C208.786 15.0083 209.202 14.92 209.732 14.92V12.92ZM207.626 13.3352C207.057 13.6032 206.564 13.967 206.169 14.4341L207.696 15.7259C207.887 15.4996 208.141 15.3034 208.478 15.1448L207.626 13.3352ZM206.195 14.4043C205.811 14.8234 205.519 15.3083 205.316 15.8489L207.189 16.5511C207.306 16.2384 207.467 15.9766 207.669 15.7557L206.195 14.4043ZM205.304 15.8838C205.142 16.367 205.046 16.8658 205.014 17.3776L207.01 17.5024C207.032 17.1609 207.095 16.833 207.201 16.5162L205.304 15.8838ZM206.174 18.4269L213.014 17.3069L212.691 15.3331L205.851 16.4531L206.174 18.4269ZM213.841 16.1717C213.721 15.3735 213.295 14.6604 212.697 14.0312L211.247 15.4087C211.663 15.8462 211.823 16.1999 211.863 16.4683L213.841 16.1717ZM212.697 14.0312C211.944 13.2383 210.896 12.92 209.732 12.92V14.92C210.542 14.92 210.987 15.1351 211.247 15.4087L212.697 14.0312Z" fill="black" mask="url(#path-1-outside-1_3_3)"/>
</g>
<defs>
<filter id="filter0_d_3_3" x="0.920013" y="0.559998" width="222.332" height="37.08" filterUnits="userSpaceOnUse" color-interpolation-filters="sRGB">
<feFlood flood-opacity="0" result="BackgroundImageFix"/>
<feColorMatrix in="SourceAlpha" type="matrix" values="0 0 0 0 0 0 0 0 0 0 0 0 0 0 0 0 0 0 127 0" result="hardAlpha"/>
<feOffset dy="4"/>
<feGaussianBlur stdDeviation="2"/>
<feComposite in2="hardAlpha" operator="out"/>
<feColorMatrix type="matrix" values="0 0 0 0 0 0 0 0 0 0 0 0 0 0 0 0 0 0 0.25 0"/>
<feBlend mode="normal" in2="BackgroundImageFix" result="effect1_dropShadow_3_3"/>
<feBlend mode="normal" in="SourceGraphic" in2="effect1_dropShadow_3_3" result="shape"/>
</filter>
</defs>
</svg>
